<?xml version="1.0" encoding="utf-8"?>
<!-- Generator: Adobe Illustrator 21.1.0, SVG Export Plug-In . SVG Version: 6.00 Build 0)  -->
<svg version="1.1" id="temp" xmlns="http://www.w3.org/2000/svg" xmlns:xlink="http://www.w3.org/1999/xlink" x="0px" y="0px"
	 viewBox="0 0 2896 2048" style="enable-background:new 0 0 2896 2048;" xml:space="preserve">
<style type="text/css">
	.st0{fill:#FFFFFF;}
	.st1{fill:#FFFFFF;stroke:#000000;}
	.st2{fill:#FFFFFF;stroke:#FFFFFF;}
	.st3{fill:none;stroke:#000000;}
	.st4{fill:none;}
	.st5{fill:#D3D3D3;stroke:#D3D3D3;}
	.st6{fill:#FFFFFF;stroke:#000000;stroke-width:0.8;stroke-dasharray:43.936,21.2132,73.936;}
	.st7{fill:#FFFFFF;stroke:#000000;stroke-width:0.8;stroke-dasharray:273.944,21.2132,303.944,21.2132;}
	.st8{fill:#FFFFFF;stroke:#000000;stroke-width:0.8;stroke-dasharray:196.592,21.2132;}
	.st9{fill:#FFFFFF;stroke:#000000;stroke-width:0.8;}
	.st10{fill:#FFFFFF;stroke:#000000;stroke-width:0.8;stroke-dasharray:100.947,18.1279,126.126;}
	.st11{fill:#FFFFFF;stroke:#000000;stroke-width:0.8;stroke-dasharray:432.219,18.1279;}
	.st12{fill:#FFFFFF;fill-opacity:0.7;stroke:#000000;stroke-width:1.5;}
	.st13{stroke:#000000;stroke-width:0.2;}
	.st14{fill:#F0F0FF;stroke:#000000;}
	.st15{font-family:'Verdana';}
	.st16{font-size:24.987px;}
	.st17{fill:#FFFFFF;stroke:#000000;stroke-linejoin:round;}
	.st18{fill:#AAAAAA;}
	.st19{font-size:18.5051px;}
	.st20{font-size:21.4437px;}
	.st21{font-size:27.7577px;}
	.st22{fill:#222222;}
	.st23{fill:#6D6D6D;}
	.st24{fill:#0E0708;}
	.st25{fill:#999999;}
</style>
<g>
	<g transform="matrix(0.4038,0,0,0.4038,283.5496,-12.9194)">
		<g>
			<rect x="-702.9" y="32.1" class="st0" width="7171.9" height="5071.8"/>
		</g>
		<g>
			<g>
				<g>
					<g>
						<polygon class="st1" points="3443.5,455.9 3443.5,455.9 4291,455.9 4291,198.2 3443.5,198.2 						"/>
						<g transform="matrix(1,0,0,1,1170.3618,85.7687)">
							<g transform="matrix(1,0,0,1,136.9722,41.6479)">
							</g>
						</g>
					</g>
					<g>
						<polygon class="st2" points="2195.7,2974.2 1843.5,2974.2 1843.5,3145.6 1519.4,3145.6 1519.4,1988.9 2195.7,1988.9 						"/>
						<g transform="matrix(1,0,0,1,548.4887,664.542)">
							<g transform="matrix(1,0,0,1,109.2911,186.9275)">
							</g>
						</g>
					</g>
					<g>
						<polygon class="st2" points="3165.5,2658 3786.4,2658 3786.4,2974.2 2195.7,2974.2 2195.7,1988.9 3165.5,1988.9 						"/>
						<g transform="matrix(1,0,0,1,767.0709,664.542)">
							<g transform="matrix(1,0,0,1,257.0618,159.2354)">
							</g>
						</g>
					</g>
					<g>
						<polygon class="st2" points="4932.2,514.6 5054.6,514.6 5054.6,1858.8 3443.5,1858.8 3443.5,502.3 4337.5,502.3 4337.5,380.5 
							4932.2,380.5 						"/>
						<g transform="matrix(1,0,0,1,1170.3618,144.7047)">
							<g transform="matrix(1,0,0,1,260.3634,238.8979)">
							</g>
						</g>
					</g>
					<g>
						<polygon class="st2" points="5459.1,2966.7 5108.2,2966.7 5108.2,2776.1 5056.3,2776.1 5056.3,2966.7 4771.5,2966.7 
							4771.5,2368.4 3828.6,2368.4 3828.6,1898.1 5459.1,1898.1 						"/>
						<g transform="matrix(1,0,0,1,1294.8525,635.1881)">
							<g transform="matrix(1,0,0,1,263.4918,172.6876)">
							</g>
						</g>
					</g>
					<g>
						<polygon class="st2" points="1120.6,3014.5 1167,3014.5 1167,2794.4 1493,2794.4 1493,4060.1 1200.3,4060.1 1200.3,4204.8 
							603.4,4204.8 603.4,4062.1 307,4062.1 307,3016.2 818.5,3016.2 818.5,2794.4 1120.6,2794.4 						"/>
						<g transform="matrix(1,0,0,1,156.6169,924.8852)">
							<g transform="matrix(1,0,0,1,191.6695,227.9253)">
							</g>
						</g>
					</g>
					<g>
						<polygon class="st2" points="3411.7,3538 3582.8,3538 3582.8,3816.2 3424.3,3816.2 3424.3,4041.3 3126.8,4041.3 
							3126.8,4194.1 2535.8,4194.1 2535.8,4047.3 2244.2,4047.3 2244.2,3009.1 3411.7,3009.1 						"/>
						<g transform="matrix(1,0,0,1,782.7407,994.2773)">
							<g transform="matrix(1,0,0,1,216.3291,191.4989)">
							</g>
						</g>
					</g>
					<g>
						<polygon class="st2" points="772.1,2969.8 307,2969.8 307,1988.9 772.1,1988.9 						"/>
						<g transform="matrix(1,0,0,1,156.6169,664.542)">
							<g transform="matrix(1,0,0,1,75.1679,158.5097)">
							</g>
						</g>
					</g>
					<g>
						<polygon class="st2" points="4103.5,3816.2 3629.2,3816.2 3629.2,3491.6 3446.6,3491.6 3446.6,3009.1 4103.5,3009.1 						"/>
						<g transform="matrix(1,0,0,1,1171.3774,994.2773)">
							<g transform="matrix(1,0,0,1,106.1615,130.4386)">
							</g>
						</g>
					</g>
					<g>
						<polygon class="st2" points="1493,2748 815.3,2748 815.3,1988.9 1493,1988.9 						"/>
						<g transform="matrix(1,0,0,1,320.9144,664.542)">
							<g transform="matrix(1,0,0,1,109.5208,122.6716)">
							</g>
						</g>
					</g>
					<g>
						<polygon class="st2" points="3782.2,2619.5 3211.9,2619.5 3211.9,1988.9 3443.5,1988.9 3443.5,1898.1 3782.2,1898.1 						"/>
						<g transform="matrix(1,0,0,1,1095.5174,635.1881)">
							<g transform="matrix(1,0,0,1,92.1675,116.587)">
							</g>
						</g>
					</g>
					<g>
						<polygon class="st2" points="4431.1,2916.3 4103.5,2916.3 4103.5,2916.4 3828.6,2916.4 3828.6,2414.8 4431.1,2414.8 						"/>
						<g transform="matrix(1,0,0,1,1294.8525,802.2065)">
							<g transform="matrix(1,0,0,1,97.3525,81.0594)">
							</g>
						</g>
					</g>
					<g>
						<polygon class="st2" points="1843.5,3801 1519.4,3801 1519.4,3192 1843.5,3192 						"/>
						<g transform="matrix(1,0,0,1,548.4887,1053.397)">
							<g transform="matrix(1,0,0,1,52.378,98.4143)">
							</g>
						</g>
					</g>
					<g>
						<polygon class="st2" points="2197.8,3801 1889.9,3801 1889.9,3192 2197.8,3192 						"/>
						<g transform="matrix(1,0,0,1,668.2447,1053.397)">
							<g transform="matrix(1,0,0,1,49.748,98.4143)">
							</g>
						</g>
					</g>
					<g>
						<polygon class="st2" points="4733.6,2916.3 4477.5,2916.3 4477.5,2414.8 4733.6,2414.8 						"/>
						<g transform="matrix(1,0,0,1,1504.5575,802.2065)">
							<g transform="matrix(1,0,0,1,41.4005,81.0354)">
							</g>
						</g>
					</g>
					<g>
						<polygon class="st2" points="2197.8,3145.6 1889.9,3145.6 1889.9,3020.6 2197.8,3020.6 						"/>
						<g transform="matrix(1,0,0,1,668.2447,998.0127)">
							<g transform="matrix(1,0,0,1,49.748,20.1922)">
							</g>
						</g>
					</g>
				</g>
				<g>
					<g>
						<polygon class="st1" points="2240.7,2301.2 2832.6,2301.2 2832.6,1988.1 2240.7,1988.1 						"/>
						<g>
							<line class="st3" x1="2240.7" y1="2301.2" x2="2240.7" y2="1988.1"/>
							<line class="st3" x1="2314.7" y1="2301.2" x2="2314.7" y2="1988.1"/>
							<line class="st3" x1="2388.7" y1="2301.2" x2="2388.7" y2="1988.1"/>
							<line class="st3" x1="2462.7" y1="2301.2" x2="2462.7" y2="1988.1"/>
							<line class="st3" x1="2536.7" y1="2301.2" x2="2536.7" y2="1988.1"/>
							<line class="st3" x1="2610.7" y1="2301.2" x2="2610.7" y2="1988.1"/>
							<line class="st3" x1="2684.6" y1="2301.2" x2="2684.6" y2="1988.1"/>
							<line class="st3" x1="2758.6" y1="2301.2" x2="2758.6" y2="1988.1"/>
							<line class="st3" x1="2832.6" y1="2301.2" x2="2832.6" y2="1988.1"/>
						</g>
						<g>
							<path class="st4" d=""/>
							<polygon class="st5" points="2798.6,2126.1 2798.6,2163.2 2829.5,2144.7 							"/>
							<path class="st5" d="M2832.6,2144.7"/>
						</g>
					</g>
				</g>
				<g>
					<g>
						<polygon class="st1" points="2832.8,2336.4 2240.5,2336.4 2240.5,2602.2 2832.8,2602.2 						"/>
						<g>
							<line class="st3" x1="2832.8" y1="2336.4" x2="2832.8" y2="2602.2"/>
							<line class="st3" x1="2758.8" y1="2336.4" x2="2758.8" y2="2602.2"/>
							<line class="st3" x1="2684.7" y1="2336.4" x2="2684.7" y2="2602.2"/>
							<line class="st3" x1="2610.7" y1="2336.4" x2="2610.7" y2="2602.2"/>
							<line class="st3" x1="2536.6" y1="2336.4" x2="2536.6" y2="2602.2"/>
							<line class="st3" x1="2462.6" y1="2336.4" x2="2462.6" y2="2602.2"/>
							<line class="st3" x1="2388.6" y1="2336.4" x2="2388.6" y2="2602.2"/>
							<line class="st3" x1="2314.5" y1="2336.4" x2="2314.5" y2="2602.2"/>
							<line class="st3" x1="2240.5" y1="2336.4" x2="2240.5" y2="2602.2"/>
						</g>
						<g>
							<path class="st4" d=""/>
							<polygon class="st5" points="2274.5,2487.9 2274.5,2450.8 2243.6,2469.3 							"/>
							<path class="st5" d="M2240.5,2469.3"/>
						</g>
					</g>
				</g>
				<g>
					<polygon class="st6" points="4291,334.1 4291,198.2 4337.5,151.8 4337.5,334.1 					"/>
				</g>
				<g>
					<polygon class="st7" points="4291,198.2 3443.5,198.2 3397,151.8 4337.5,151.8 					"/>
				</g>
				<g>
					<polygon class="st8" points="3397,151.8 3397,455.9 3443.5,455.9 3443.5,198.2 					"/>
				</g>
				<g>
					<polygon class="st9" points="3165.5,2646.1 2195.7,2646.1 2195.7,2599.7 3165.5,2599.7 					"/>
				</g>
				<g>
					<polygon class="st10" points="2240.7,1988.9 2240.7,2301.2 2194.3,2332.7 2194.3,1988.9 					"/>
				</g>
				<g>
					<polygon class="st11" points="2240.7,2301.2 2870.4,2301.2 2870.4,2332.7 2194.3,2332.7 					"/>
				</g>
				<g transform="matrix(-1,0,0,-1,1690.8016,980.4852)">
					<g transform="matrix(1,0,0,1,0,0)">
						<g>
							<polygon class="st1" points="-3362.9,-1985.9 -3221.8,-1985.9 -3221.8,-1833.7 -3362.9,-1833.7 							"/>
						</g>
						<desc>Width:60 Height:200 Depth:60 Elevation:0</desc>
					</g>
					<g transform="matrix(1,0,0,1,45.5958,0)">
						<g>
							<polygon class="st1" points="-3267.4,-1985.9 -3126.3,-1985.9 -3126.3,-1833.7 -3267.4,-1833.7 							"/>
						</g>
						<desc>Width:60 Height:200 Depth:60 Elevation:0</desc>
					</g>
				</g>
				<g transform="matrix(1,0,0,1,469.4659,664.5732)">
					<g transform="matrix(1,0,0,1,0,0)">
						<g>
							<polygon class="st1" points="805.4,1324.4 1023.5,1324.4 1023.5,1510.1 805.4,1510.1 							"/>
						</g>
						<desc>Width:60 Height:5 Depth:60 Elevation:105</desc>
					</g>
					<g transform="matrix(1,0,0,1,0,0)">
						<g>
							<polygon class="st4" points="805.4,1324.4 1023.5,1324.4 1023.5,1510.1 805.4,1510.1 							"/>
						</g>
						<g>
							<polygon class="st1" points="823.6,1354.4 1005.4,1354.4 1005.4,1493.7 823.6,1493.7 							"/>
						</g>
						<g>
							<circle class="st9" cx="914.5" cy="1424.1" r="10.8"/>
						</g>
						<g>
							<circle class="st9" cx="914.5" cy="1424.1" r="6.2"/>
						</g>
						<g>
							<polygon class="st1" points="903.6,1339.9 922.1,1339.9 922.1,1383.2 903.6,1383.2 							"/>
						</g>
						<desc>Width:60 Height:90 Depth:60 Elevation:0</desc>
					</g>
				</g>
				<g transform="matrix(0,-1,1,0,1095.6267,868.3622)">
					<g>
						<polygon class="st1" points="-1751.2,2116.6 -1120.2,2116.6 -1120.2,2302.2 -1751.2,2302.2 						"/>
					</g>
					<desc>Width:60 Height:90 Depth:60 Elevation:0</desc>
				</g>
				<g transform="matrix(0,-1,1,0,1095.6268,869.0722)">
					<g>
						<polygon class="st12" points="-1752.6,2116.6 -1119.5,2116.6 -1119.5,2209.4 -1752.6,2209.4 						"/>
					</g>
					<desc>Width:60 Height:60 Depth:30 Elevation:140</desc>
				</g>
				<g transform="matrix(1,0,0,1,1294.8525,635.3131)">
					<g>
						<polygon class="st1" points="2533.8,1263.2 3269.3,1263.2 3269.3,1426.1 2533.8,1426.1 						"/>
					</g>
					<desc>Width:60 Height:90 Depth:60 Elevation:0</desc>
				</g>
				<g transform="matrix(1,0,0,1,1314.9415,638.8181)">
					<g>
						<polygon class="st4" points="2575.8,1270.5 2761.5,1270.5 2761.5,1422.1 2575.8,1422.1 						"/>
					</g>
					<g>
						<polygon class="st1" points="2591.3,1300.5 2746,1300.5 2746,1408.7 2591.3,1408.7 						"/>
					</g>
					<g>
						<circle class="st9" cx="2668.7" cy="1351.9" r="10.8"/>
					</g>
					<g>
						<circle class="st9" cx="2668.7" cy="1351.9" r="6.2"/>
					</g>
					<g>
						<polygon class="st1" points="2659.4,1283.1 2677.9,1283.1 2677.9,1326.4 2659.4,1326.4 						"/>
					</g>
					<desc>Width:60 Height:90 Depth:60 Elevation:0</desc>
				</g>
				<g transform="matrix(-1,0,0,-1,1562.4337,964.2773)">
					<g>
						<polygon class="st4" points="-3094.1,-1952 -2967.2,-1952 -2967.2,-1732.3 -3094.1,-1732.3 						"/>
					</g>
					<g>
						<rect x="-3092.5" y="-1950.5" class="st1" width="123.7" height="55.6"/>
						<path class="st1" d="M-2968.8-1815.1c0,0,3.5,81.3-60.6,81.3c-66.3,0-62.8-81.3-62.8-81.3l-0.3-79.7h123.7V-1815.1z"/>
						<rect x="-3040.5" y="-1927.3" class="st1" width="19.7" height="9.4"/>
					</g>
					<desc>Width:41 Height:85 Depth:71 Elevation:0</desc>
				</g>
				<g transform="matrix(1,0,0,1,1691.176,635.1881)">
					<g>
						<polygon class="st1" points="3363.7,1262.9 3767.9,1262.9 3767.9,1953 3363.7,1953 						"/>
					</g>
					<desc>Width:60 Height:90 Depth:60 Elevation:0</desc>
				</g>
				<g transform="matrix(0,-1,1,0,1719.7055,822.5152)">
					<g>
						<polygon class="st1" points="-1655.2,3423.4 -1113.7,3423.4 -1113.7,3677.1 -1655.2,3677.1 						"/>
					</g>
					<g>
						<path class="st1" d="M-1139.7,3550.9c0,61,0,110.5-245.4,110.5s-245.4-49.5-245.4-110.5s0-110.5,245.4-110.5
							S-1139.7,3489.9-1139.7,3550.9z"/>
					</g>
					<desc>Width:175 Height:38 Depth:82 Elevation:0</desc>
				</g>
				<g transform="matrix(-1,0,0,-1,1776.7402,980.5634)">
					<g>
						<polygon class="st4" points="-3542.8,-1986.1 -3443.8,-1986.1 -3443.8,-1927.3 -3542.8,-1927.3 						"/>
					</g>
					<g>
						<rect x="-3531.4" y="-1984.6" class="st1" width="34.7" height="18.9"/>
						<rect x="-3488.4" y="-1984.6" class="st1" width="34.7" height="18.9"/>
						<rect x="-3454" y="-1984.6" class="st1" width="10.5" height="18.9"/>
						<rect x="-3541.3" y="-1984.6" class="st1" width="9.9" height="18.9"/>
						<path class="st1" d="M-3496.7-1959.8c0,4.6-1.2,10.2-5,15.5c-1.2,1.9-3.1,3.4-3.4,5.3c-0.6,3.4,0.9,8.7,7.7,9.9
							c1.5,0.3,4,0.3,5,0.3h-0.3c0.9,0,3.4,0,5-0.3c6.8-1.2,8.4-6.5,7.7-9.9c-0.3-1.9-2.2-3.4-3.4-5.3c-3.7-5.3-5-10.8-5-15.5"/>
						<path class="st1" d="M-3505.1-1938.8c0.3,0.6,5,5.9,13,5.9c7.4-0.3,11.4-5.3,12.1-5.9"/>
						<path class="st1" d="M-3496.7-1984.6h8.4v24.8c-2.8,0-5.6,0-8.4,0l0,0C-3496.7-1967.8-3496.7-1976.2-3496.7-1984.6z"/>
					</g>
					<g>
						<path class="st1" d="M-3531.4-1975c4-1.5,4.6-1.9,4.6-1.9c0,3.4,0,0,0,3.4C-3526.8-1973.4-3527.1-1973.4-3531.4-1975"/>
						<path class="st1" d="M-3454-1975c-4-1.5-4.6-1.9-4.6-1.9c0,3.4,0,0,0,3.4C-3458.7-1973.4-3458.4-1973.4-3454-1975"/>
					</g>
					<desc>Width:32 Height:97 Depth:19 Elevation:135</desc>
				</g>
				<g transform="matrix(1,0,0,1,1461.0043,638.8181)">
					<g>
						<polygon class="st4" points="2881.7,1270.5 3067.3,1270.5 3067.3,1422.1 2881.7,1422.1 						"/>
					</g>
					<g>
						<polygon class="st1" points="2897.2,1300.5 3051.9,1300.5 3051.9,1408.7 2897.2,1408.7 						"/>
					</g>
					<g>
						<circle class="st9" cx="2974.5" cy="1351.9" r="10.8"/>
					</g>
					<g>
						<circle class="st9" cx="2974.5" cy="1351.9" r="6.2"/>
					</g>
					<g>
						<polygon class="st1" points="2965.2,1283.1 2983.8,1283.1 2983.8,1326.4 2965.2,1326.4 						"/>
					</g>
					<desc>Width:60 Height:90 Depth:60 Elevation:0</desc>
				</g>
				<g transform="matrix(-1,0,0,-1,1587.1775,964.1054)">
					<g>
						<polygon class="st12" points="-3145.9,-1951.6 -2890.3,-1951.6 -2890.3,-1858.8 -3145.9,-1858.8 						"/>
					</g>
					<desc>Width:60 Height:60 Depth:30 Elevation:140</desc>
				</g>
				<g transform="matrix(-1,0,0,-1,1069.9938,1377.2283)">
					<g>
						<polygon class="st1" points="-2062.9,-2816.7 -1465.8,-2816.7 -1465.8,-2670.8 -2062.9,-2670.8 						"/>
					</g>
					<desc>Width:60 Height:90 Depth:60 Elevation:0</desc>
				</g>
				<g transform="matrix(1,0,0,1,1459.3062,144.7984)">
					<g>
						<polygon class="st1" points="2878.1,236 3479.2,236 3479.2,370.7 2878.1,370.7 						"/>
					</g>
					<desc>Width:60 Height:90 Depth:60 Elevation:0</desc>
				</g>
				<g transform="matrix(-1,0,0,-1,863.5207,1329.7772)">
					<g>
						<polygon class="st1" points="-1630.6,-2717.4 -1380.6,-2717.4 -1380.6,-2575.4 -1630.6,-2575.4 						"/>
					</g>
					<desc>Width:60 Height:90 Depth:60 Elevation:0</desc>
				</g>
				<g transform="matrix(-1,0,0,-1,1164.1793,1327.8501)">
					<g>
						<polygon class="st1" points="-2260.2,-2713.3 -2010.2,-2713.3 -2010.2,-2571.4 -2260.2,-2571.4 						"/>
					</g>
					<desc>Width:60 Height:90 Depth:60 Elevation:0</desc>
				</g>
				<g transform="matrix(0,1,-1,0,1215.352,1165.6445)">
					<g>
						<polygon class="st1" points="2373.7,-2367.3 2650.6,-2367.3 2650.6,-2214.1 2373.7,-2214.1 						"/>
					</g>
					<desc>Width:60 Height:90 Depth:60 Elevation:0</desc>
				</g>
				<g transform="matrix(0,1,-1,0,1215.227,1165.215)">
					<g>
						<polygon class="st1" points="2372.8,-2367 2652.1,-2367 2652.1,-2278.7 2372.8,-2278.7 						"/>
					</g>
					<desc>Width:60 Height:200 Depth:60 Elevation:0</desc>
				</g>
				<g transform="matrix(1,0,0,1,1171.3773,994.3554)">
					<g>
						<polygon class="st1" points="2275.2,2015 2674.5,2015 2674.5,2186.5 2275.2,2186.5 						"/>
					</g>
					<desc>Width:60 Height:90 Depth:60 Elevation:0</desc>
				</g>
				<g transform="matrix(1,0,0,1,1201.6417,993.4435)">
					<g>
						<polygon class="st4" points="2338.6,2013.1 2524.2,2013.1 2524.2,2187.9 2338.6,2187.9 						"/>
					</g>
					<g>
						<polygon class="st1" points="2354.1,2043.1 2508.8,2043.1 2508.8,2172.5 2354.1,2172.5 						"/>
					</g>
					<g>
						<circle class="st9" cx="2431.4" cy="2106.9" r="10.8"/>
					</g>
					<g>
						<circle class="st9" cx="2431.4" cy="2106.9" r="6.2"/>
					</g>
					<g>
						<polygon class="st1" points="2422.1,2027.6 2440.7,2027.6 2440.7,2071 2422.1,2071 						"/>
					</g>
					<desc>Width:60 Height:90 Depth:60 Elevation:0</desc>
				</g>
				<g transform="matrix(1,0,0,1,1328.3178,994.2773)">
					<g>
						<polygon class="st4" points="2603.9,2014.8 2730.7,2014.8 2730.7,2234.5 2603.9,2234.5 						"/>
					</g>
					<g>
						<rect x="2605.4" y="2016.4" class="st1" width="123.7" height="55.6"/>
						<path class="st1" d="M2729.1,2151.7c0,0,3.5,81.3-60.6,81.3c-66.3,0-62.8-81.3-62.8-81.3l-0.3-79.7h123.7V2151.7z"/>
						<rect x="2657.4" y="2039.5" class="st1" width="19.7" height="9.4"/>
					</g>
					<desc>Width:41 Height:85 Depth:71 Elevation:0</desc>
				</g>
				<g transform="matrix(0.8496,0,0,0.975,1230.3989,1175.2045)">
					<g>
						<polygon class="st1" points="2823.5,2455.1 3364.9,2455.1 3364.9,2708.8 2823.5,2708.8 						"/>
					</g>
					<g>
						<path class="st1" d="M3338.9,2582.5c0,61,0,110.5-245.4,110.5s-245.4-49.5-245.4-110.5s0-110.5,245.4-110.5
							S3338.9,2521.6,3338.9,2582.5z"/>
					</g>
					<desc>Width:175 Height:38 Depth:82 Elevation:0</desc>
				</g>
				<g transform="matrix(0,1,-1,0,1379.0708,1196.2984)">
					<g>
						<polygon class="st4" points="2437.8,-2710.1 2536.9,-2710.1 2536.9,-2651.3 2437.8,-2651.3 						"/>
					</g>
					<g>
						
							<rect x="2457.2" y="-2716.5" transform="matrix(2.535182e-06 1 -1 2.535182e-06 -232.5283 -5165.7622)" class="st1" width="18.9" height="34.7"/>
						
							<rect x="2500.2" y="-2716.5" transform="matrix(2.535182e-06 1 -1 2.535182e-06 -189.5221 -5208.7686)" class="st1" width="18.9" height="34.7"/>
						
							<rect x="2522.5" y="-2704.4" transform="matrix(2.535182e-06 1 -1 2.535182e-06 -167.2455 -5231.0449)" class="st1" width="18.9" height="10.5"/>
						
							<rect x="2434.9" y="-2704.1" transform="matrix(2.535182e-06 1 -1 2.535182e-06 -254.8049 -5143.4854)" class="st1" width="18.9" height="9.9"/>
						<path class="st1" d="M2483.9-2683.8c0,4.6-1.2,10.2-5,15.5c-1.2,1.9-3.1,3.4-3.4,5.3c-0.6,3.4,0.9,8.7,7.7,9.9
							c1.5,0.3,4,0.3,5,0.3h-0.3c0.9,0,3.4,0,5-0.3c6.8-1.2,8.4-6.5,7.7-9.9c-0.3-1.9-2.2-3.4-3.4-5.3c-3.7-5.3-5-10.8-5-15.5"/>
						<path class="st1" d="M2475.6-2662.8c0.3,0.6,5,5.9,13,5.9c7.4-0.3,11.4-5.3,12.1-5.9"/>
						<path class="st1" d="M2483.9-2708.6h8.4v24.8c-2.8,0-5.6,0-8.4,0l0,0C2483.9-2691.9,2483.9-2700.2,2483.9-2708.6z"/>
					</g>
					<g>
						<path class="st1" d="M2449.3-2699c4-1.5,4.6-1.9,4.6-1.9c0,3.4,0,0,0,3.4C2453.9-2697.4,2453.6-2697.4,2449.3-2699"/>
						<path class="st1" d="M2526.6-2699c-4-1.5-4.6-1.9-4.6-1.9c0,3.4,0,0,0,3.4C2522-2697.4,2522.3-2697.4,2526.6-2699"/>
					</g>
					<desc>Width:32 Height:97 Depth:19 Elevation:135</desc>
				</g>
				<g transform="matrix(1,0,0,1,548.4887,664.7451)">
					<g>
						<polygon class="st1" points="970.9,1324.8 1642.1,1324.8 1642.1,1510.4 970.9,1510.4 						"/>
					</g>
					<desc>Width:60 Height:90 Depth:60 Elevation:0</desc>
				</g>
				<g transform="matrix(1,0,0,1,548.4887,664.7919)">
					<g>
						<polygon class="st12" points="970.9,1324.9 1239.3,1324.9 1239.3,1417.7 970.9,1417.7 						"/>
					</g>
					<desc>Width:60 Height:60 Depth:30 Elevation:140</desc>
				</g>
				<g transform="matrix(1,0,0,1,684.2079,664.7919)">
					<g>
						<polygon class="st12" points="1255.1,1324.9 1510.1,1324.9 1510.1,1417.7 1255.1,1417.7 						"/>
					</g>
					<desc>Width:60 Height:60 Depth:30 Elevation:140</desc>
				</g>
				<g transform="matrix(1.2272,0,0,1.4662,320.9144,664.771)">
					<g>
						<polygon class="st1" points="402.8,903.6 588.5,903.6 588.5,1089.2 402.8,1089.2 						"/>
					</g>
					<g>
						<rect x="420.8" y="1085.5" class="st1" width="152.8" height="5.3"/>
					</g>
					<desc>Width:60 Height:90 Depth:60 Elevation:0</desc>
				</g>
				<g transform="matrix(1.2351,0,0,1.4153,394.5484,664.5862)">
					<g>
						<polygon class="st1" points="525.1,935.8 710.7,935.8 710.7,1121.5 525.1,1121.5 						"/>
					</g>
					<g>
						<path class="st1" d="M533.5,1119.6h168.9"/>
					</g>
					<desc>Width:60 Height:90 Depth:60 Elevation:0</desc>
				</g>
				<g transform="matrix(1,0,0,1,469.4659,664.6045)">
					<g>
						<polygon class="st12" points="805.4,1324.5 1022.3,1324.5 1022.3,1417.3 805.4,1417.3 						"/>
					</g>
					<desc>Width:60 Height:60 Depth:30 Elevation:140</desc>
				</g>
				<g transform="matrix(0,-1,1,0,320.9457,817.905)">
					<g>
						<polygon class="st12" points="-1645.5,494.4 -1526.1,494.4 -1526.1,561.5 -1645.5,561.5 						"/>
					</g>
					<desc>Width:60 Height:60 Depth:30 Elevation:140</desc>
				</g>
				<g transform="matrix(-1,0,0,-1,538.9944,909.8227)">
					<g>
						<polygon class="st1" points="-951,-1838 -276.3,-1838 -276.3,-1690.7 -951,-1690.7 						"/>
					</g>
					<desc>Width:60 Height:90 Depth:60 Elevation:0</desc>
				</g>
				<g transform="matrix(1,0,0,1,321.9526,924.8852)">
					<g>
						<polygon class="st1" points="496.5,1869.5 798.2,1869.5 798.2,2059.1 496.5,2059.1 						"/>
					</g>
					<desc>Width:60 Height:90 Depth:60 Elevation:0</desc>
				</g>
				<g transform="matrix(1,0,0,1,321.9526,924.8852)">
					<g>
						<polygon class="st12" points="496.5,1869.5 797.4,1869.5 797.4,1975.8 496.5,1975.8 						"/>
					</g>
					<desc>Width:60 Height:60 Depth:30 Elevation:140</desc>
				</g>
				<g transform="matrix(-1,0,0,-1,444.2295,1380.7358)">
					<g>
						<polygon class="st1" points="-752.6,-2824.1 -159.2,-2824.1 -159.2,-2668 -752.6,-2668 						"/>
					</g>
					<desc>Width:60 Height:90 Depth:60 Elevation:0</desc>
				</g>
				<g transform="matrix(-1,0,0,-1,539.9559,1333.956)">
					<g>
						<polygon class="st1" points="-953,-2726.1 -658.8,-2726.1 -658.8,-2570 -953,-2570 						"/>
					</g>
					<desc>Width:60 Height:90 Depth:60 Elevation:0</desc>
				</g>
				<g transform="matrix(-1,0,0,-1,251.7269,1334.6152)">
					<g>
						<polygon class="st1" points="-349.5,-2727.5 -55.2,-2727.5 -55.2,-2571.4 -349.5,-2571.4 						"/>
					</g>
					<desc>Width:60 Height:90 Depth:60 Elevation:0</desc>
				</g>
				<g transform="matrix(0.8601,0,0,1,156.6169,664.542)">
					<g>
						<polygon class="st1" points="174.8,1324.4 716.2,1324.4 716.2,1578.1 174.8,1578.1 						"/>
					</g>
					<g>
						<path class="st1" d="M690.2,1451.8c0,61,0,110.5-245.4,110.5s-245.4-49.5-245.4-110.5s0-110.5,245.4-110.5
							S690.2,1390.9,690.2,1451.8z"/>
					</g>
					<desc>Width:175 Height:38 Depth:82 Elevation:0</desc>
				</g>
				<g transform="matrix(0,1,-1,0,307.1392,688.2891)">
					<g>
						<polygon class="st4" points="1374.1,-465.5 1473.1,-465.5 1473.1,-406.7 1374.1,-406.7 						"/>
					</g>
					<g>
						
							<rect x="1393.4" y="-471.9" transform="matrix(2.535182e-06 1 -1 2.535182e-06 948.3172 -1857.4015)" class="st1" width="18.9" height="34.7"/>
						
							<rect x="1436.4" y="-471.9" transform="matrix(2.535182e-06 1 -1 2.535182e-06 991.3234 -1900.4078)" class="st1" width="18.9" height="34.7"/>
						
							<rect x="1458.7" y="-459.8" transform="matrix(2.535182e-06 1 -1 2.535182e-06 1013.6 -1922.6844)" class="st1" width="18.9" height="10.5"/>
						
							<rect x="1371.1" y="-459.5" transform="matrix(2.535182e-06 1 -1 2.535182e-06 926.0406 -1835.1248)" class="st1" width="18.9" height="9.9"/>
						<path class="st1" d="M1420.2-439.2c0,4.6-1.2,10.2-5,15.5c-1.2,1.9-3.1,3.4-3.4,5.3c-0.6,3.4,0.9,8.7,7.7,9.9
							c1.5,0.3,4,0.3,5,0.3h-0.3c0.9,0,3.4,0,5-0.3c6.8-1.2,8.4-6.5,7.7-9.9c-0.3-1.9-2.2-3.4-3.4-5.3c-3.7-5.3-5-10.8-5-15.5"/>
						<path class="st1" d="M1411.8-418.2c0.3,0.6,5,5.9,13,5.9c7.4-0.3,11.4-5.3,12.1-5.9"/>
						<path class="st1" d="M1420.2-464h8.4v24.8c-2.8,0-5.6,0-8.4,0l0,0C1420.2-447.3,1420.2-455.6,1420.2-464z"/>
					</g>
					<g>
						<path class="st1" d="M1385.5-454.4c4-1.5,4.6-1.9,4.6-1.9c0,3.4,0,0,0,3.4C1390.2-452.8,1389.9-452.8,1385.5-454.4"/>
						<path class="st1" d="M1462.9-454.4c-4-1.5-4.6-1.9-4.6-1.9c0,3.4,0,0,0,3.4C1458.2-452.8,1458.6-452.8,1462.9-454.4"/>
					</g>
					<desc>Width:32 Height:97 Depth:19 Elevation:135</desc>
				</g>
				<g transform="matrix(0,-1,1,0,156.6169,806.9284)">
					<g>
						<polygon class="st4" points="-1622.5,150.3 -1495.7,150.3 -1495.7,370 -1622.5,370 						"/>
					</g>
					<g>
						
							<rect x="-1586.9" y="117.8" transform="matrix(-2.535182e-06 -1 1 -2.535182e-06 -1738.7998 -1379.4043)" class="st1" width="55.6" height="123.7"/>
						<path class="st1" d="M-1497.2,287.2c0,0,3.5,81.3-60.6,81.3c-66.3,0-62.8-81.3-62.8-81.3l-0.3-79.7h123.7V287.2z"/>
						
							<rect x="-1563.8" y="169.9" transform="matrix(-2.535182e-06 -1 1 -2.535182e-06 -1738.7998 -1379.4043)" class="st1" width="9.4" height="19.7"/>
					</g>
					<desc>Width:41 Height:85 Depth:71 Elevation:0</desc>
				</g>
				<g transform="matrix(0,-1,1,0,156.6169,981.5613)">
					<g>
						<polygon class="st1" points="-1988.2,150.3 -1496,150.3 -1496,317 -1988.2,317 						"/>
					</g>
					<desc>Width:60 Height:90 Depth:60 Elevation:0</desc>
				</g>
				<g transform="matrix(0,-1,1,0,153.3669,932.236)">
					<g>
						<polygon class="st4" points="-1884.9,143.5 -1699.3,143.5 -1699.3,321.1 -1884.9,321.1 						"/>
					</g>
					<g>
						<polygon class="st1" points="-1869.4,173.5 -1714.7,173.5 -1714.7,305.4 -1869.4,305.4 						"/>
					</g>
					<g>
						<circle class="st9" cx="-1792.1" cy="238.8" r="10.8"/>
					</g>
					<g>
						<circle class="st9" cx="-1792.1" cy="238.8" r="6.2"/>
					</g>
					<g>
						<polygon class="st1" points="-1801.4,158.3 -1782.8,158.3 -1782.8,201.6 -1801.4,201.6 						"/>
					</g>
					<desc>Width:60 Height:90 Depth:60 Elevation:0</desc>
				</g>
				<g>
					<polygon points="4103.5,3816.2 4103.5,3543.8 4091.6,3543.8 4091.6,3816.2 					"/>
				</g>
				<g>
					<polygon class="st13" points="307,4062.1 307,1988.9 260.6,1942.5 260.6,4108.6 					"/>
					<g>
						<polygon class="st14" points="307,2471 307,2254.5 260.6,2254.5 260.6,2471 						"/>
						<g>
							<polygon class="st14" points="307,2471 307,2254.5 260.6,2254.5 260.6,2471 							"/>
						</g>
						<g>
							<line class="st3" x1="283.7" y1="2447.8" x2="283.7" y2="2277.7"/>
							<line class="st3" x1="307" y1="2447.8" x2="260.5" y2="2447.8"/>
							<line class="st3" x1="307" y1="2277.7" x2="260.5" y2="2277.7"/>
						</g>
					</g>
				</g>
				<g>
					<polygon class="st13" points="307,1988.9 3443.5,1988.9 3397,1942.5 260.6,1942.5 					"/>
					<g>
						<polygon class="st14" points="2577.5,1988.9 3079,1988.9 3079,1942.5 2577.5,1942.5 						"/>
						<g>
							<polygon class="st14" points="2577.5,1988.9 3079,1988.9 3079,1942.5 2577.5,1942.5 							"/>
						</g>
						<g>
							<line class="st3" x1="2600.7" y1="1965.7" x2="3055.7" y2="1965.7"/>
							<line class="st3" x1="2600.7" y1="1988.9" x2="2600.7" y2="1942.5"/>
							<line class="st3" x1="3055.7" y1="1988.9" x2="3055.7" y2="1942.5"/>
						</g>
					</g>
					<g>
						<polygon class="st14" points="1794.8,1988.9 1942,1988.9 1942,1942.5 1794.8,1942.5 						"/>
						<g>
							<polygon class="st14" points="1794.8,1988.9 1942,1988.9 1942,1942.5 1794.8,1942.5 							"/>
						</g>
						<g>
							<line class="st3" x1="1818" y1="1965.7" x2="1918.8" y2="1965.7"/>
							<line class="st3" x1="1818" y1="1988.9" x2="1818" y2="1942.5"/>
							<line class="st3" x1="1918.8" y1="1988.9" x2="1918.8" y2="1942.5"/>
						</g>
					</g>
					<g>
						<polygon class="st14" points="837.8,1988.9 1269.5,1988.9 1269.5,1942.5 837.8,1942.5 						"/>
						<g>
							<polygon class="st14" points="837.8,1988.9 1269.5,1988.9 1269.5,1942.5 837.8,1942.5 							"/>
						</g>
						<g>
							<line class="st3" x1="861" y1="1965.7" x2="1246.3" y2="1965.7"/>
							<line class="st3" x1="861" y1="1988.9" x2="861" y2="1942.5"/>
							<line class="st3" x1="1246.3" y1="1988.9" x2="1246.3" y2="1942.5"/>
						</g>
					</g>
				</g>
				<g>
					<polygon class="st13" points="3443.5,1988.9 3443.5,502.3 3397,455.9 3397,1942.5 					"/>
				</g>
				<g>
					<polygon class="st13" points="3443.5,502.3 4337.5,502.3 4291,455.9 3397,455.9 					"/>
					<g>
						<polygon class="st1" points="3543.7,502.3 4013.8,502.3 4013.8,455.9 3543.7,455.9 						"/>
						<g>
							<polygon class="st1" points="3543.7,502.3 4013.8,502.3 4013.8,455.9 3543.7,455.9 							"/>
						</g>
						<g>
							<g>
								<polygon class="st4" points="3543.7,502.3 3778.7,502.3 3778.7,455.9 3543.7,455.9 								"/>
							</g>
							<path class="st3" d="M3778.7,502.3c0,156.7-78.4,235-235,235v-235H3778.7z"/>
						</g>
						<g>
							<g>
								<polygon class="st4" points="3778.7,502.3 4013.8,502.3 4013.8,455.9 3778.7,455.9 								"/>
							</g>
							<path class="st3" d="M3778.7,502.3c0,156.7,78.4,235,235,235v-235H3778.7z"/>
						</g>
					</g>
				</g>
				<g>
					<polygon class="st13" points="4337.5,502.3 4337.5,380.5 4291,334.1 4291,455.9 					"/>
				</g>
				<g>
					<polygon class="st13" points="4337.5,380.5 4932.2,380.5 4978.6,334.1 4291,334.1 					"/>
					<g>
						<polygon class="st14" points="4374.7,380.5 4900.5,380.5 4900.5,334.1 4374.7,334.1 						"/>
						<g>
							<polygon class="st14" points="4374.7,380.5 4900.5,380.5 4900.5,334.1 4374.7,334.1 							"/>
						</g>
						<g>
							<line class="st3" x1="4397.9" y1="357.3" x2="4877.3" y2="357.3"/>
							<line class="st3" x1="4397.9" y1="380.5" x2="4397.9" y2="334.1"/>
							<line class="st3" x1="4877.3" y1="380.5" x2="4877.3" y2="334.1"/>
						</g>
					</g>
				</g>
				<g>
					<polygon class="st13" points="4932.2,380.5 4932.2,514.6 4978.6,468.2 4978.6,334.1 					"/>
				</g>
				<g>
					<polygon class="st13" points="4932.2,514.6 5054.6,514.6 5101,468.2 4978.6,468.2 					"/>
				</g>
				<g>
					<polygon class="st13" points="5054.6,514.6 5054.6,1898.1 5101,1851.7 5101,468.2 					"/>
					<g>
						<polygon class="st14" points="5054.6,562.5 5054.6,798 5101,798 5101,562.5 						"/>
						<g>
							<polygon class="st14" points="5054.6,562.5 5054.6,798 5101,798 5101,562.5 							"/>
						</g>
						<g>
							<line class="st3" x1="5077.8" y1="585.7" x2="5077.8" y2="774.8"/>
							<line class="st3" x1="5054.6" y1="585.7" x2="5101" y2="585.7"/>
							<line class="st3" x1="5054.6" y1="774.8" x2="5101" y2="774.8"/>
						</g>
					</g>
					<g>
						<polygon class="st14" points="5054.6,1593.6 5054.6,1840.8 5101,1840.8 5101,1593.6 						"/>
						<g>
							<polygon class="st14" points="5054.6,1593.6 5054.6,1840.8 5101,1840.8 5101,1593.6 							"/>
						</g>
						<g>
							<line class="st3" x1="5077.8" y1="1616.8" x2="5077.8" y2="1817.6"/>
							<line class="st3" x1="5054.6" y1="1616.8" x2="5101" y2="1616.8"/>
							<line class="st3" x1="5054.6" y1="1817.6" x2="5101" y2="1817.6"/>
						</g>
					</g>
				</g>
				<g>
					<polygon class="st13" points="5054.6,1898.1 5459.1,1898.1 5505.5,1851.7 5101,1851.7 					"/>
					<g>
						<polygon class="st14" points="5143.8,1898.1 5439.8,1898.1 5439.8,1851.7 5143.8,1851.7 						"/>
						<g>
							<polygon class="st14" points="5143.8,1898.1 5439.8,1898.1 5439.8,1851.7 5143.8,1851.7 							"/>
						</g>
						<g>
							<line class="st3" x1="5167" y1="1874.9" x2="5416.6" y2="1874.9"/>
							<line class="st3" x1="5167" y1="1898.1" x2="5167" y2="1851.7"/>
							<line class="st3" x1="5416.6" y1="1898.1" x2="5416.6" y2="1851.7"/>
						</g>
					</g>
				</g>
				<g>
					<polygon class="st13" points="5459.1,1898.1 5459.1,2966.7 5505.5,3013.1 5505.5,1851.7 					"/>
					<g>
						<polygon class="st14" points="5459.1,1937.3 5459.1,2417.8 5505.5,2417.8 5505.5,1937.3 						"/>
						<g>
							<polygon class="st14" points="5459.1,1937.3 5459.1,2417.8 5505.5,2417.8 5505.5,1937.3 							"/>
						</g>
						<g>
							<line class="st3" x1="5482.3" y1="1960.5" x2="5482.3" y2="2394.6"/>
							<line class="st3" x1="5459.1" y1="1960.5" x2="5505.5" y2="1960.5"/>
							<line class="st3" x1="5459.1" y1="2394.6" x2="5505.5" y2="2394.6"/>
						</g>
					</g>
					<g>
						<polygon class="st14" points="5459.1,2752.7 5459.1,2922.4 5505.5,2922.4 5505.5,2752.7 						"/>
						<g>
							<polygon class="st14" points="5459.1,2752.7 5459.1,2922.4 5505.5,2922.4 5505.5,2752.7 							"/>
						</g>
						<g>
							<line class="st3" x1="5482.3" y1="2775.9" x2="5482.3" y2="2899.2"/>
							<line class="st3" x1="5459.1" y1="2775.9" x2="5505.5" y2="2775.9"/>
							<line class="st3" x1="5459.1" y1="2899.2" x2="5505.5" y2="2899.2"/>
						</g>
					</g>
				</g>
				<g>
					<polygon class="st13" points="5459.1,2966.7 4771.5,2966.7 4733.6,3013.1 5505.5,3013.1 					"/>
				</g>
				<g>
					<polygon class="st13" points="4733.6,3013.1 4733.6,2962.7 4771.5,2916.3 4771.5,2966.7 					"/>
				</g>
				<g>
					<polygon class="st13" points="4771.5,2916.3 4103.5,2916.3 4149.9,2962.7 4733.6,2962.7 					"/>
				</g>
				<g>
					<polygon class="st13" points="4103.5,2916.3 4103.5,3816.2 4149.9,3862.6 4149.9,2962.7 					"/>
				</g>
				<g>
					<polygon class="st13" points="4103.5,3816.2 3424.3,3816.2 3470.7,3862.6 4149.9,3862.6 					"/>
					<g>
						<polygon class="st14" points="3850.7,3816.2 3659,3816.2 3659,3862.6 3850.7,3862.6 						"/>
						<g>
							<polygon class="st14" points="3850.7,3816.2 3659,3816.2 3659,3862.6 3850.7,3862.6 							"/>
						</g>
						<g>
							<line class="st3" x1="3827.6" y1="3839.5" x2="3682.2" y2="3839.5"/>
							<line class="st3" x1="3827.6" y1="3816.2" x2="3827.6" y2="3862.7"/>
							<line class="st3" x1="3682.2" y1="3816.2" x2="3682.2" y2="3862.7"/>
						</g>
					</g>
				</g>
				<g>
					<polygon class="st13" points="3424.3,3816.2 3424.3,4041.3 3470.7,4087.7 3470.7,3862.6 					"/>
				</g>
				<g>
					<polygon class="st13" points="3424.3,4041.3 3126.8,4041.3 3173.2,4087.7 3470.7,4087.7 					"/>
				</g>
				<g>
					<polygon class="st13" points="3126.8,4041.3 3126.8,4194.1 3173.2,4240.5 3173.2,4087.7 					"/>
				</g>
				<g>
					<polygon class="st13" points="3126.8,4194.1 2535.8,4194.1 2489.4,4240.5 3173.2,4240.5 					"/>
					<g>
						<polygon class="st14" points="3072.5,4194.1 2583.5,4194.1 2583.5,4240.5 3072.5,4240.5 						"/>
						<g>
							<polygon class="st14" points="3072.5,4194.1 2583.5,4194.1 2583.5,4240.5 3072.5,4240.5 							"/>
						</g>
						<g>
							<line class="st3" x1="3049.3" y1="4217.3" x2="2606.7" y2="4217.3"/>
							<line class="st3" x1="3049.3" y1="4194.1" x2="3049.3" y2="4240.5"/>
							<line class="st3" x1="2606.7" y1="4194.1" x2="2606.7" y2="4240.5"/>
						</g>
					</g>
				</g>
				<g>
					<polygon class="st13" points="2535.8,4194.1 2535.8,4047.3 2489.4,4093.7 2489.4,4240.5 					"/>
				</g>
				<g>
					<polygon class="st13" points="2535.8,4047.3 2244.2,4047.3 2197.8,4093.7 2489.4,4093.7 					"/>
				</g>
				<g>
					<polygon class="st13" points="2244.2,4047.3 2244.2,3801 2197.8,3847.4 2197.8,4093.7 					"/>
				</g>
				<g>
					<polygon class="st13" points="2244.2,3801 1493,3801 1539.4,3847.4 2197.8,3847.4 					"/>
				</g>
				<g>
					<polygon class="st13" points="1493,3801 1493,4060.1 1539.4,4106.5 1539.4,3847.4 					"/>
				</g>
				<g>
					<polygon class="st13" points="1493,4060.1 1200.3,4060.1 1246.7,4106.5 1539.4,4106.5 					"/>
				</g>
				<g>
					<polygon class="st13" points="1200.3,4060.1 1200.3,4204.8 1246.7,4251.2 1246.7,4106.5 					"/>
				</g>
				<g>
					<polygon class="st13" points="1200.3,4204.8 603.4,4204.8 557,4251.2 1246.7,4251.2 					"/>
					<g>
						<polygon class="st14" points="1174.6,4204.8 650.4,4204.8 650.4,4251.2 1174.6,4251.2 						"/>
						<g>
							<polygon class="st14" points="1174.6,4204.8 650.4,4204.8 650.4,4251.2 1174.6,4251.2 							"/>
						</g>
						<g>
							<line class="st3" x1="1151.4" y1="4228" x2="673.6" y2="4228"/>
							<line class="st3" x1="1151.4" y1="4204.8" x2="1151.4" y2="4251.2"/>
							<line class="st3" x1="673.6" y1="4204.8" x2="673.6" y2="4251.2"/>
						</g>
					</g>
				</g>
				<g>
					<polygon class="st13" points="603.4,4204.8 603.4,4062.1 557,4108.6 557,4251.2 					"/>
				</g>
				<g>
					<polygon class="st13" points="603.4,4062.1 307,4062.1 260.6,4108.6 557,4108.6 					"/>
				</g>
				<g>
					<polygon class="st13" points="5101,1858.8 3397,1858.8 3397,1898.1 5101,1898.1 					"/>
					<g>
						<polygon class="st1" points="4872.1,1858.8 4631,1858.8 4631,1898.1 4872.1,1898.1 						"/>
						<g>
							<polygon class="st1" points="4872.1,1858.8 4631,1858.8 4631,1898.1 4872.1,1898.1 							"/>
						</g>
						<g>
							<g>
								<polygon class="st4" points="4872.1,1858.8 4631,1858.8 4631,1898.1 4872.1,1898.1 								"/>
							</g>
							<path class="st3" d="M4631,1898.1c0,160.8,80.4,241.2,241.2,241.2v-241.2H4631z"/>
						</g>
					</g>
					<g>
						<polygon class="st1" points="3755.6,1858.8 3483.3,1858.8 3483.3,1898.1 3755.6,1898.1 						"/>
						<g>
							<polygon class="st2" points="3755.6,1858.8 3483.3,1858.8 3483.3,1898.1 3755.6,1898.1 							"/>
						</g>
					</g>
				</g>
				<g>
					<polygon class="st13" points="3211.9,1942.5 3211.9,2619.5 3165.5,2658 3165.5,1942.5 					"/>
				</g>
				<g>
					<polygon class="st13" points="3165.5,2658 3828.6,2658 3782.2,2619.5 3211.9,2619.5 					"/>
					<g>
						<polygon class="st1" points="3494.3,2658 3751.1,2658 3751.1,2619.5 3494.3,2619.5 						"/>
						<g>
							<polygon class="st1" points="3494.3,2658 3751.1,2658 3751.1,2619.5 3494.3,2619.5 							"/>
						</g>
						<g>
							<g>
								<polygon class="st4" points="3494.3,2658 3751.1,2658 3751.1,2619.5 3494.3,2619.5 								"/>
							</g>
							<path class="st3" d="M3494.3,2619.5c0-171.2,85.6-256.8,256.8-256.8v256.8H3494.3z"/>
						</g>
					</g>
				</g>
				<g>
					<polygon class="st13" points="3828.6,2658 3828.6,1858.8 3782.2,1858.8 3782.2,2619.5 					"/>
					<g>
						<polygon class="st1" points="3828.6,2341 3828.6,2098.5 3782.2,2098.5 3782.2,2341 						"/>
						<g>
							<polygon class="st1" points="3828.6,2341 3828.6,2098.5 3782.2,2098.5 3782.2,2341 							"/>
						</g>
						<g>
							<g>
								<polygon class="st4" points="3828.6,2341 3828.6,2098.5 3782.2,2098.5 3782.2,2341 								"/>
							</g>
							<path class="st3" d="M3828.6,2098.5c161.7,0,242.5,80.8,242.5,242.5h-242.5V2098.5z"/>
						</g>
					</g>
				</g>
				<g>
					<polygon class="st13" points="4149.9,2916.4 3828.6,2916.4 3786.4,3009.1 4149.9,3009.1 					"/>
				</g>
				<g>
					<polygon class="st13" points="3828.6,2619.5 3828.6,2916.4 3786.4,3009.1 3786.4,2619.5 					"/>
				</g>
				<g>
					<polygon class="st13" points="4477.5,2962.7 4477.5,2368.4 4431.1,2414.8 4431.1,2962.7 					"/>
				</g>
				<g>
					<polygon class="st13" points="4477.5,2368.4 3782.2,2368.4 3782.2,2414.8 4431.1,2414.8 					"/>
					<g>
						<polygon class="st1" points="4402.1,2368.4 4135.9,2368.4 4135.9,2414.8 4402.1,2414.8 						"/>
						<g>
							<polygon class="st2" points="4402.1,2368.4 4135.9,2368.4 4135.9,2414.8 4402.1,2414.8 							"/>
						</g>
						<g>
							<g>
								<polygon class="st4" points="4402.1,2368.4 4135.9,2368.4 4135.9,2414.8 4402.1,2414.8 								"/>
							</g>
							<path class="st1" d="M4269,2397.8v-12.4h-133.1v12.4H4269z"/>
						</g>
					</g>
				</g>
				<g>
					<polygon class="st13" points="4733.6,2962.7 4733.6,2414.8 4771.5,2368.4 4771.5,2962.7 					"/>
				</g>
				<g>
					<polygon class="st13" points="4431.1,2368.4 4771.5,2368.4 4733.6,2414.8 4431.1,2414.8 					"/>
					<g>
						<polygon class="st1" points="4488,2368.4 4722.4,2368.4 4722.4,2414.8 4488,2414.8 						"/>
						<g>
							<polygon class="st1" points="4488,2368.4 4722.4,2368.4 4722.4,2414.8 4488,2414.8 							"/>
						</g>
						<g>
							<g>
								<polygon class="st4" points="4488,2368.4 4722.4,2368.4 4722.4,2414.8 4488,2414.8 								"/>
							</g>
							<path class="st3" d="M4722.4,2414.8c0,156.3-78.1,234.4-234.4,234.4v-234.4H4722.4z"/>
						</g>
					</g>
				</g>
				<g>
					<polygon class="st13" points="5056.3,3013.1 5056.3,2776.1 5108.2,2776.1 5108.2,3013.1 					"/>
				</g>
				<g>
					<polygon class="st13" points="3828.6,3009.1 2197.8,3009.1 2197.8,2974.2 3828.6,2974.2 					"/>
					<g>
						<polygon class="st1" points="2538.9,3009.1 2283.3,3009.1 2283.3,2974.2 2538.9,2974.2 						"/>
						<g>
							<polygon class="st1" points="2538.9,3009.1 2283.3,3009.1 2283.3,2974.2 2538.9,2974.2 							"/>
						</g>
						<g>
							<g>
								<polygon class="st4" points="2538.9,3009.1 2283.3,3009.1 2283.3,2974.2 2538.9,2974.2 								"/>
							</g>
							<path class="st3" d="M2538.9,3009.1c0,170.5-85.2,255.7-255.7,255.7v-255.7H2538.9z"/>
						</g>
					</g>
				</g>
				<g>
					<polygon class="st13" points="2197.8,3847.4 2197.8,2974.2 2244.2,2974.2 2244.2,3847.4 					"/>
					<g>
						<polygon class="st1" points="2197.8,3602.7 2197.8,3346.6 2244.2,3346.6 2244.2,3602.7 						"/>
						<g>
							<polygon class="st1" points="2197.8,3602.7 2197.8,3346.6 2244.2,3346.6 2244.2,3602.7 							"/>
						</g>
						<g>
							<g>
								<polygon class="st4" points="2197.8,3602.7 2197.8,3346.6 2244.2,3346.6 2244.2,3602.7 								"/>
							</g>
							<path class="st3" d="M2244.2,3346.6c170.7,0,256.1,85.4,256.1,256.1h-256.1V3346.6z"/>
						</g>
					</g>
				</g>
				<g>
					<polygon class="st13" points="3446.6,2974.2 3446.6,3491.6 3411.7,3538 3411.7,2974.2 					"/>
					<g>
						<polygon class="st1" points="3446.6,3212.8 3446.6,3463.6 3411.7,3463.6 3411.7,3212.8 						"/>
						<g>
							<polygon class="st1" points="3446.6,3212.8 3446.6,3463.6 3411.7,3463.6 3411.7,3212.8 							"/>
						</g>
						<g>
							<g>
								<polygon class="st4" points="3446.6,3212.8 3446.6,3463.6 3411.7,3463.6 3411.7,3212.8 								"/>
							</g>
							<path class="st3" d="M3446.6,3212.8c167.2,0,250.8,83.6,250.8,250.8h-250.8V3212.8z"/>
						</g>
					</g>
				</g>
				<g>
					<polygon class="st13" points="3411.7,3538 3582.8,3538 3629.2,3491.6 3446.6,3491.6 					"/>
				</g>
				<g>
					<polygon class="st13" points="3629.2,3491.6 3629.2,3862.6 3582.8,3862.6 3582.8,3538 					"/>
				</g>
				<g>
					<polygon class="st13" points="1519.4,3847.4 1519.4,1942.5 1493,1942.5 1493,3847.4 					"/>
					<g>
						<polygon class="st1" points="1519.4,2522.9 1519.4,2277.3 1493,2277.3 1493,2522.9 						"/>
						<g>
							<polygon class="st1" points="1519.4,2522.9 1519.4,2277.3 1493,2277.3 1493,2522.9 							"/>
						</g>
						<g>
							<g>
								<polygon class="st4" points="1519.4,2522.9 1519.4,2277.3 1493,2277.3 1493,2522.9 								"/>
							</g>
							<path class="st3" d="M1493,2277.3c-163.8,0-245.7,81.9-245.7,245.7H1493V2277.3z"/>
						</g>
					</g>
					<g>
						<polygon class="st1" points="1519.4,3095.2 1519.4,2848.1 1493,2848.1 1493,3095.2 						"/>
						<g>
							<polygon class="st1" points="1519.4,3095.2 1519.4,2848.1 1493,2848.1 1493,3095.2 							"/>
						</g>
						<g>
							<g>
								<polygon class="st4" points="1519.4,3095.2 1519.4,2848.1 1493,2848.1 1493,3095.2 								"/>
							</g>
							<path class="st3" d="M1493,3095.2c-164.7,0-247-82.3-247-247h247V3095.2z"/>
						</g>
					</g>
					<g>
						<polygon class="st1" points="1519.4,3604 1519.4,3347.4 1493,3347.4 1493,3604 						"/>
						<g>
							<polygon class="st1" points="1519.4,3604 1519.4,3347.4 1493,3347.4 1493,3604 							"/>
						</g>
						<g>
							<g>
								<polygon class="st4" points="1519.4,3604 1519.4,3347.4 1493,3347.4 1493,3604 								"/>
							</g>
							<path class="st3" d="M1493,3347.4c-171,0-256.5,85.5-256.5,256.5H1493V3347.4z"/>
						</g>
					</g>
				</g>
				<g>
					<polygon class="st13" points="2197.8,2974.2 1843.5,2974.2 1889.9,3020.6 2197.8,3020.6 					"/>
					<g>
						<polygon class="st1" points="2190.4,2974.2 1928.7,2974.2 1928.7,3020.6 2190.4,3020.6 						"/>
						<g>
							<polygon class="st1" points="2190.4,2974.2 1928.7,2974.2 1928.7,3020.6 2190.4,3020.6 							"/>
						</g>
						<g>
							<g>
								<polygon class="st4" points="2190.4,2974.2 1928.7,2974.2 1928.7,3020.6 2190.4,3020.6 								"/>
							</g>
							<path class="st3" d="M1928.7,2974.2c0-174.5,87.2-261.7,261.7-261.7v261.7H1928.7z"/>
						</g>
					</g>
				</g>
				<g>
					<polygon class="st13" points="1843.5,2974.2 1843.5,3192 1889.9,3192 1889.9,3020.6 					"/>
				</g>
				<g>
					<polygon class="st13" points="1843.5,3145.6 1493,3145.6 1493,3192 1889.9,3192 					"/>
				</g>
				<g>
					<polygon class="st13" points="1519.4,2794.4 772.1,2794.4 815.3,2748 1519.4,2748 					"/>
				</g>
				<g>
					<polygon class="st13" points="772.1,2794.4 772.1,1942.5 815.3,1942.5 815.3,2794.4 					"/>
				</g>
				<g>
					<polygon class="st13" points="772.1,2794.4 772.1,2969.8 818.5,3016.2 818.5,2794.4 					"/>
				</g>
				<g>
					<polygon class="st13" points="818.5,3016.2 260.6,3016.2 260.6,2969.8 772.1,2969.8 					"/>
					<g>
						<polygon class="st1" points="727,3016.2 488.9,3016.2 488.9,2969.8 727,2969.8 						"/>
						<g>
							<polygon class="st1" points="727,3016.2 488.9,3016.2 488.9,2969.8 727,2969.8 							"/>
						</g>
						<g>
							<g>
								<polygon class="st4" points="727,3016.2 488.9,3016.2 488.9,2969.8 727,2969.8 								"/>
							</g>
							<path class="st3" d="M488.9,2969.8c0-158.7,79.4-238.1,238.1-238.1v238.1H488.9z"/>
						</g>
					</g>
				</g>
				<g>
					<polygon class="st13" points="1167,2748 1167,3014.5 1120.6,3014.5 1120.6,2748 					"/>
				</g>
				<g>
					<polygon class="st13" points="1843.5,3192 2244.2,3192 2244.2,3145.6 1889.9,3145.6 					"/>
				</g>
				<g>
					<polygon class="st13" points="1843.5,3192 1843.5,3847.4 1889.9,3847.4 1889.9,3192 					"/>
				</g>
				<g transform="matrix(1,0,0,1,668.2447,998.0127)">
					<g transform="matrix(1,0,0,1,20.1922,20.1921)">
					</g>
				</g>
				<g transform="matrix(1,0,0,1,1504.5575,802.2065)">
					<g transform="matrix(1,0,0,1,41.4004,41.4004)">
					</g>
				</g>
				<g transform="matrix(1,0,0,1,668.2447,1053.397)">
					<g transform="matrix(1,0,0,1,49.748,49.748)">
					</g>
				</g>
				<g transform="matrix(1,0,0,1,548.4887,1053.397)">
					<g transform="matrix(1,0,0,1,52.378,52.378)">
					</g>
				</g>
				<g transform="matrix(1,0,0,1,1294.8525,802.2065)">
					<g transform="matrix(1,0,0,1,70.3275,83.1023)">
						<g>
							<text transform="matrix(2.4765 0 0 2.4765 2681.0439 1786.6428)" class="st15 st16">W.I.C</text>
						</g>
					</g>
				</g>
				<g transform="matrix(1,0,0,1,1155.7361,635.1881)">
					<g transform="matrix(1,0,0,1,0,0)">
						<g transform="matrix(1,0,0,1,69.3354,0)">
							<polygon points="2372.2,1278.4 2387.7,1262.9 2403.1,1278.4 							"/>
						</g>
						<g transform="matrix(1,0,0,1,124.1164,92.142)">
							<polygon points="2486.9,1440.4 2502.4,1455.8 2486.9,1471.3 							"/>
						</g>
						<g transform="matrix(1,0,0,1,69.3354,233.174)">
							<polygon points="2372.2,1735.7 2387.7,1751.2 2403.1,1735.7 							"/>
						</g>
						<g transform="matrix(1,0,0,1,0,92.142)">
							<polygon points="2257.9,1471.3 2242.5,1455.8 2257.9,1440.4 							"/>
						</g>
					</g>
					<g transform="matrix(1,0,0,1,32.311,114.3774)">
						<g>
							<text transform="matrix(2.4765 0 0 2.4765 2310.1289 1502.3989)" class="st15 st16">HALL</text>
						</g>
						<g transform="matrix(1,0,0,1,-27.1563,24.625)">
							<text transform="matrix(2.4765 0 0 2.4765 2253.2639 1553.9641)" class="st15 st16">4&apos;1&quot; x 7&apos;8&quot;</text>
						</g>
					</g>
				</g>
				<g transform="matrix(1,0,0,1,320.9144,664.542)">
					<g transform="matrix(1,0,0,1,0,0)">
						<g transform="matrix(1,0,0,1,109.5208,0)">
							<polygon points="708.2,1339.8 723.7,1324.4 739.2,1339.8 							"/>
						</g>
						<g transform="matrix(1,0,0,1,219.0415,122.6716)">
							<polygon points="937.6,1565.8 953,1581.2 937.6,1596.7 							"/>
						</g>
						<g transform="matrix(1,0,0,1,109.5208,245.3433)">
							<polygon points="708.2,1822.6 723.7,1838.1 739.2,1822.6 							"/>
						</g>
						<g transform="matrix(1,0,0,1,0,122.6716)">
							<polygon points="509.8,1596.7 494.4,1581.2 509.8,1565.8 							"/>
						</g>
					</g>
					<g transform="matrix(1,0,0,1,65.9022,131.9398)">
						<g>
							<text transform="matrix(2.4765 0 0 2.4765 632.3683 1600.6417)" class="st15 st16">LAUNDRY</text>
						</g>
						<g transform="matrix(1,0,0,1,-4.75,24.625)">
							<text transform="matrix(2.4765 0 0 2.4765 622.4214 1652.2045)" class="st15 st16">7&apos;2&quot; x 8&apos;1&quot;</text>
						</g>
					</g>
				</g>
				<g transform="matrix(1,0,0,1,1171.3774,994.2773)">
					<g transform="matrix(1,0,0,1,0,0)">
						<g transform="matrix(1,0,0,1,106.1615,0)">
							<polygon points="2482.1,2030.3 2497.5,2014.8 2513,2030.3 							"/>
						</g>
						<g transform="matrix(1,0,0,1,212.3229,130.4386)">
							<polygon points="2704.4,2272.5 2719.8,2288 2704.4,2303.4 							"/>
						</g>
						<g transform="matrix(1,0,0,1,106.1615,260.8772)">
							<polygon points="2482.1,2545.6 2497.5,2561.1 2513,2545.6 							"/>
						</g>
						<g transform="matrix(1,0,0,1,0,130.4386)">
							<polygon points="2290.7,2303.4 2275.2,2288 2290.7,2272.5 							"/>
						</g>
					</g>
					<g transform="matrix(1,0,0,1,83.0963,101.2197)">
						<g>
							<text transform="matrix(2.4765 0 0 2.4765 2449.2253 2226.7732)" class="st15 st16">BATH</text>
						</g>
						<g transform="matrix(1,0,0,1,-26.1406,24.625)">
							<text transform="matrix(2.4765 0 0 2.4765 2394.4888 2278.3359)" class="st15 st16">7&apos;0&quot; x 8&apos;7&quot;</text>
						</g>
					</g>
				</g>
				<g transform="matrix(1,0,0,1,156.6169,664.542)">
					<g transform="matrix(1,0,0,1,0,0)">
						<g transform="matrix(1,0,0,1,75.1679,0)">
							<polygon points="292.3,1339.8 307.7,1324.4 323.2,1339.8 							"/>
						</g>
						<g transform="matrix(1,0,0,1,150.3357,158.5097)">
							<polygon points="449.7,1640.8 465.1,1656.3 449.7,1671.7 							"/>
						</g>
						<g transform="matrix(1,0,0,1,75.1679,317.0193)">
							<polygon points="292.3,1972.7 307.7,1988.2 323.2,1972.7 							"/>
						</g>
						<g transform="matrix(1,0,0,1,0,158.5097)">
							<polygon points="165.8,1671.7 150.3,1656.3 165.8,1640.8 							"/>
						</g>
					</g>
					<g transform="matrix(0,-1,1,0,96.1617,210.0151)">
						<g>
							<text transform="matrix(2.4765 0 0 2.4765 -1764.1289 351.6937)" class="st15 st16">BATH</text>
						</g>
						<g transform="matrix(1,0,0,1,-38.8516,24.625)">
							<text transform="matrix(2.4765 0 0 2.4765 -1845.483 403.2589)" class="st15 st16">4&apos;11&quot; x 10&apos;5&quot;</text>
						</g>
					</g>
				</g>
				<g transform="matrix(1,0,0,1,782.7407,994.2773)">
					<g transform="matrix(1,0,0,1,0,0)">
						<g transform="matrix(1,0,0,1,216.3291,0)">
							<polygon points="1898.9,2030.3 1914.4,2014.8 1929.9,2030.3 							"/>
						</g>
						<g transform="matrix(1,0,0,1,432.6582,212.2411)">
							<polygon points="2351.9,2443.8 2367.4,2459.2 2351.9,2474.7 							"/>
						</g>
						<g transform="matrix(1,0,0,1,216.3291,382.9978)">
							<polygon points="1898.9,2801.3 1914.4,2816.8 1929.9,2801.3 							"/>
						</g>
						<g transform="matrix(1,0,0,1,0,212.2411)">
							<polygon points="1476.9,2474.7 1461.4,2459.2 1476.9,2443.8 							"/>
						</g>
					</g>
					<g transform="matrix(1,0,0,1,135.8149,173.996)">
						<g>
							<text transform="matrix(2.4765 0 0 2.4765 1745.8202 2379.1648)" class="st15 st16">BEDROOM 2</text>
						</g>
						<g transform="matrix(1,0,0,1,-3.7656,24.625)">
							<text transform="matrix(2.4765 0 0 2.4765 1737.9338 2430.7302)" class="st15 st16">14&apos;2&quot; x 12&apos;7&quot;</text>
						</g>
					</g>
				</g>
				<g transform="matrix(1,0,0,1,156.6169,924.8852)">
					<g transform="matrix(1,0,0,1,0,0)">
						<g transform="matrix(1,0,0,1,191.6695,0)">
							<polygon points="536.2,1885 551.7,1869.5 567.2,1885 							"/>
						</g>
						<g transform="matrix(1,0,0,1,383.339,227.9253)">
							<polygon points="937.6,2331.3 953,2346.8 937.6,2362.3 							"/>
						</g>
						<g transform="matrix(1,0,0,1,191.6695,455.8505)">
							<polygon points="536.2,2808.6 551.7,2824.1 567.2,2808.6 							"/>
						</g>
						<g transform="matrix(1,0,0,1,0,227.9253)">
							<polygon points="165.8,2362.3 150.3,2346.8 165.8,2331.3 							"/>
						</g>
					</g>
					<g transform="matrix(1,0,0,1,139.414,211.904)">
						<g>
							<text transform="matrix(2.4765 0 0 2.4765 442.2653 2313.2371)" class="st15 st16">BEDROOM 1</text>
						</g>
						<g transform="matrix(1,0,0,1,-10.1172,24.625)">
							<text transform="matrix(2.4765 0 0 2.4765 421.0783 2364.8022)" class="st15 st16">12&apos;7&quot; x 14&apos;11&quot;</text>
						</g>
					</g>
				</g>
				<g transform="matrix(1,0,0,1,1294.8525,635.1881)">
					<g transform="matrix(1,0,0,1,0,0)">
						<g transform="matrix(1,0,0,1,333.3118,0)">
							<polygon points="3216.3,1278.4 3231.7,1262.9 3247.2,1278.4 							"/>
						</g>
						<g transform="matrix(1,0,0,1,526.9836,126.3219)">
							<polygon points="3621.8,1511.9 3637.3,1527.4 3621.8,1542.9 							"/>
						</g>
						<g transform="matrix(1,0,0,1,333.3118,345.3753)">
							<polygon points="3216.3,1970.6 3231.7,1986.1 3247.2,1970.6 							"/>
						</g>
						<g transform="matrix(1,0,0,1,0,126.3219)">
							<polygon points="2549.2,1542.9 2533.8,1527.4 2549.2,1511.9 							"/>
						</g>
					</g>
					<g transform="matrix(1,0,0,1,119.6928,98.4544)">
						<g>
							<text transform="matrix(2.4765 0 0 2.4765 2784.4121 1469.056)" class="st15 st16">MASTER BATHROOM</text>
						</g>
						<g transform="matrix(1,0,0,1,37.2578,24.625)">
							<text transform="matrix(2.4765 0 0 2.4765 2862.429 1520.6213)" class="st15 st16">17&apos;3&quot; x 11&apos;4&quot;</text>
						</g>
					</g>
				</g>
				<g transform="matrix(1,0,0,1,1170.3618,144.7047)">
					<g transform="matrix(1,0,0,1,0,0)">
						<g transform="matrix(1,0,0,1,315.4529,0)">
							<polygon points="2918.2,251.3 2933.6,235.8 2949.1,251.3 							"/>
						</g>
						<g transform="matrix(1,0,0,1,520.7269,238.8979)">
							<polygon points="3348,720.6 3363.5,736.1 3348,751.5 							"/>
						</g>
						<g transform="matrix(1,0,0,1,315.4529,477.7957)">
							<polygon points="2918.2,1220.9 2933.6,1236.3 2949.1,1220.9 							"/>
						</g>
						<g transform="matrix(1,0,0,1,0,238.8979)">
							<polygon points="2288.6,751.5 2273.1,736.1 2288.6,720.6 							"/>
						</g>
					</g>
					<g transform="matrix(1,0,0,1,176.8677,242.1973)">
						<g>
							<text transform="matrix(2.4765 0 0 2.4765 2643.4551 742.9877)" class="st15 st16">MASTER BEDROOM</text>
						</g>
						<g transform="matrix(1,0,0,1,31.3594,24.625)">
							<text transform="matrix(2.4765 0 0 2.4765 2709.1208 794.553)" class="st15 st16">17&apos;1&quot; x 15&apos;8&quot;</text>
						</g>
					</g>
				</g>
				<g transform="matrix(1,0,0,1,766.2642,876.9535)">
					<g transform="matrix(1,0,0,1,0,0)">
						<g transform="matrix(1,0,0,1,252.9882,0)">
							<polygon points="1941.2,1784.6 1956.7,1769.1 1972.1,1784.6 							"/>
						</g>
						<g transform="matrix(1,0,0,1,514.9303,53.8563)">
							<polygon points="2489.7,1866.5 2505.2,1881.9 2489.7,1897.4 							"/>
						</g>
						<g transform="matrix(1,0,0,1,252.9882,106.0592)">
							<polygon points="1941.2,1975.8 1956.7,1991.2 1972.1,1975.8 							"/>
						</g>
						<g transform="matrix(1,0,0,1,0,53.8563)">
							<polygon points="1442.4,1897.4 1426.9,1881.9 1442.4,1866.5 							"/>
						</g>
					</g>
					<g transform="matrix(1,0,0,1,216.7822,43.3005)">
						<g>
							<text transform="matrix(2.4765 0 0 2.4765 1880.8621 1859.8184)" class="st15 st16">HALL</text>
						</g>
						<g transform="matrix(1,0,0,1,-39.8672,24.625)">
							<text transform="matrix(2.4765 0 0 2.4765 1797.3821 1911.3812)" class="st15 st16">16&apos;11&quot; x 3&apos;6&quot;</text>
						</g>
					</g>
				</g>
				<g transform="matrix(1,0,0,1,548.4887,664.542)">
					<g transform="matrix(1,0,0,1,0,0)">
						<g transform="matrix(1,0,0,1,94.756,0)">
							<polygon points="1153.9,1339.8 1169.3,1324.4 1184.8,1339.8 							"/>
						</g>
						<g transform="matrix(1,0,0,1,218.1393,101.1493)">
							<polygon points="1412.2,1520.7 1427.7,1536.2 1412.2,1551.6 							"/>
						</g>
						<g transform="matrix(1,0,0,1,94.756,373.855)">
							<polygon points="1153.9,2091.7 1169.3,2107.2 1184.8,2091.7 							"/>
						</g>
						<g transform="matrix(1,0,0,1,0,101.1493)">
							<polygon points="986.4,1551.6 970.9,1536.2 986.4,1520.7 							"/>
						</g>
					</g>
					<g transform="matrix(0,-1,1,0,66.673,349.947)">
						<g>
							<text transform="matrix(2.4765 0 0 2.4765 -2057.1445 1110.517)" class="st15 st16">CHILDREN&apos;S STUDY AREA</text>
						</g>
						<g transform="matrix(1,0,0,1,71.0078,24.625)">
							<text transform="matrix(2.4765 0 0 2.4765 -1908.4525 1162.0823)" class="st15 st16">7&apos;2&quot; x 12&apos;3&quot;</text>
						</g>
					</g>
				</g>
				<g transform="matrix(1,0,0,1,1170.3618,85.7687)">
					<g transform="matrix(1,0,0,1,89.3088,41.6479)">
						<g>
							<text transform="matrix(2.4765 0 0 2.4765 2460.1086 199.6314)" class="st15 st16">BALCONY</text>
						</g>
					</g>
				</g>
				<g transform="matrix(1,0,0,1.2577,1701.2323,843.5017)">
					<g>
						<polygon class="st1" points="3384.7,1351 3392.5,1351 3392.5,1536.6 3384.7,1536.6 						"/>
					</g>
					<g>
						<rect x="3384.7" y="1351" class="st17" width="7.7" height="185.6"/>
					</g>
					<desc>Width:2.5 Height:180 Depth:60 Elevation:135</desc>
				</g>
				<g transform="matrix(0,-1,1.9407,0,1705.394,845.9268)">
					<g>
						<polygon class="st1" points="-1704.2,1748.6 -1696.4,1748.6 -1696.4,1934.2 -1704.2,1934.2 						"/>
					</g>
					<g>
						
							<rect x="-1880.4" y="1839.4" transform="matrix(-2.535182e-06 -1 1 -2.535182e-06 -3541.7012 141.0805)" class="st17" width="360.3" height="4"/>
					</g>
					<desc>Width:2.5 Height:180 Depth:60 Elevation:135</desc>
				</g>
			</g>
		</g>
	</g>
	<g>
		<g transform="matrix(1,0,0,1,584.3359,645.7478)">
			<text transform="matrix(1 0 0 1 558.119 1352.1096)" class="st18 st15 st19">SIZES AND DIMENSIONS ARE APPROXIMATE, ACTUAL MAY VARY.</text>
		</g>
		<g transform="matrix(1,0,0,1,608.875,636.1499)">
			<text transform="matrix(1 0 0 1 708.5837 1271.9702)" class="st15 st20">GROSS INTERNAL AREA</text>
			<text transform="matrix(1 0 0 1 609.5037 1301.9907)" class="st15 st20">FLOOR 1: 1845 sq ft, FLOOR 2: 1288 sq ft</text>
			<text transform="matrix(1 0 0 1 739.4021 1332.0122)" class="st15 st20">TOTAL: 3133 sq ft</text>
		</g>
		<g transform="matrix(1,0,0,1,231.1876,645.7478)">
			<text transform="matrix(1 0 0 1 -181.3675 1352.1096)" class="st18 st15 st21">FLOOR 2</text>
		</g>
		<g transform="matrix(0.0907,0,0,0.0907,1010.5856,613.5016)">
			<desc>Created with Snap</desc>
			<g>
				<g>
					<g>
						<polygon class="st22" points="17006.1,15140.4 17006.1,14971.6 17001.5,14874.2 17005.2,14873.5 17044.4,14960.3 
							17136.6,15129.8 17228.8,14960.3 17268.2,14873.5 17271.7,14874.2 17267.1,14971.6 17267.1,15140.4 17365.4,15140.4 
							17365.4,14724.4 17254.3,14724.4 17137.4,14949.6 17136,14949.6 17018.9,14724.4 16907.8,14724.4 16907.8,15140.4 						"/>
						<path class="st22" d="M19902.9,15034.9c0,68.9,37.1,105.2,107.3,105.2h60.6v-85.1h-66v-181.6h71.6v-83.4h-79.4v-80.5h-93.9
							v325.4H19902.9z"/>
						<path class="st22" d="M19875.5,14790.1c0,0-1.5,0-16.6,0c-57.6,0-84.9,38.8-93.6,65.6c-1.5,0-3.4,0-3.4,0v-65.6h-101.8v350.3
							h101.8c0,0,0-193.8,0-199.4c0-20.7,7.8-35.2,17.8-44.6c17-16.5,53.4-21.2,95.8-21.2
							C19875.5,14840.6,19875.5,14790.1,19875.5,14790.1z"/>
						<path class="st22" d="M18868.6,14790.1c0,0-1.5,0-16.6,0c-57.6,0-84.9,38.8-93.6,65.6c-1.5,0-3.4,0-3.4,0v-65.6h-101.8v350.3
							h101.8c0,0,0-193.8,0-199.4c0-20.7,7.8-35.2,17.8-44.6c17-16.5,53.4-21.2,95.8-21.2
							C18868.6,14840.6,18868.6,14790.1,18868.6,14790.1z"/>
						<path class="st22" d="M18272.6,14970.3c0-114.2,60.6-188.6,169.3-188.6c119.8,0,168,86.7,168,184.4v30.2h-231.9v3.4
							c0,40.6,21.8,68.9,79.8,68.9c42.7,0,66-19.9,88.8-43.4l50.9,63.3c-32.3,37.1-85.3,59.9-151.3,59.9
							C18335.2,15148.6,18272.6,15085.8,18272.6,14970.3z M18377.9,14931.1v5.5h126.7v-6.1c0-44-19.9-73.7-60.6-73.7
							S18377.9,14886.3,18377.9,14931.1z"/>
						<path class="st22" d="M19278.2,14970.3c0-116.3,63.3-188.6,169.3-188.6c106,0,169.3,72.3,169.3,188.6s-63.3,178.3-169.3,178.3
							C19341.3,15148.6,19278.2,15086.6,19278.2,14970.3z M19510.7,14996.5v-62.6c0-45.3-23.3-71.6-63.3-71.6
							c-40,0-63.3,26.2-63.3,71.6v62.6c0,45.3,23.3,71.6,63.3,71.6C19487.3,15068,19510.7,15041.8,19510.7,14996.5z"/>
						<path class="st22" d="M18175.8,14709.5h-91.4v41.9c0,24.9-8.2,38.5-35.8,38.5h-25.4v83.4h50.9v161.5
							c0,68.9,37.1,105.2,107.3,105.2h60.6v-85.1h-66v-181.6h71.6v-83.4h-71.6v-80.4H18175.8z"/>
						<path class="st22" d="M17922.3,14709.5h-91.4v41.9c0,24.9-8.2,38.5-35.8,38.5h-25.4v83.4h50.9v161.5
							c0,68.9,37.1,105.2,107.3,105.2h60.6v-85.1h-66v-181.6h71.6v-83.4h-71.6v-80.4H17922.3z"/>
						<path class="st22" d="M19103.3,14781.6c-46.9,0-86.7,28.9-97,68.9h-3.4v-60.6h-101.8v455.7h101.8v-165.9h3.4
							c10.3,39.2,50.3,68.9,97,68.9c91.4,0,139.1-55.7,139.1-178.3C19242.2,14847.8,19194.8,14781.6,19103.3,14781.6z
							 M19136.2,15002c0,45.3-28.3,64.1-66.8,64.1s-66.8-19.9-66.8-53v-95.7c0-33.1,28.3-53,66.8-53s66.8,29.7,66.8,75V15002z"/>
						<path class="st22" d="M17705.4,15140.4c-36.5,0-62.6-24.9-68.9-63.3h-4.2c-11.1,46.9-50.9,71.6-106,71.6
							c-72.3,0-112.1-42.7-112.1-105.2c0-76.3,59.1-112.9,154.8-112.9h57.2v-11.7c0-35-17.2-57.2-59.9-57.2
							c-40.6,0-62,20.7-77.7,42.7l-60.6-53.8c28.9-42.7,70.2-68.9,146-68.9c101.8,0,154.2,46.9,154.2,132.2v141.2h33.7v85.1h-56.4
							V15140.4z M17626.4,15030.9v-42.7h-49.6c-39.2,0-59.9,14.5-59.9,40.6v10.3c0,26.2,17.2,38.5,47.4,38.5
							C17598.1,15077.6,17626.4,15063.8,17626.4,15030.9z"/>
					</g>
				</g>
				<g>
					<path class="st23" d="M16580.8,14581.1l-245.1,68.7l-245.3-68.7l-98,27.5v632.5l98.1,27.5l245.3-68.7l245.3,68.7l98.1-27.5
						v-632.5L16580.8,14581.1z M16482.9,15053.1l-147.1-41.1l-147.1,41.1v-256.4l147.1,41.1l147.1-41.1V15053.1z"/>
					<g>
						<polygon class="st24" points="16335.8,14704.7 16335.8,14837.9 16090.5,14769.2 16090.5,15268.5 15992.5,15241.2 
							15992.5,14608.7 						"/>
						<polygon class="st24" points="16482.9,15108 16335.8,15066.7 16335.8,15199.9 16580.8,15268.5 16580.8,14769.2 
							16482.9,14796.8 						"/>
					</g>
					<g>
						<polygon class="st25" points="16580.8,14581.1 16679,14608.7 16335.8,14704.7 15992.5,14608.7 16090.5,14581.1 
							16335.8,14649.8 						"/>
						<polygon class="st25" points="16335.8,15011.8 16482.9,15053.1 16482.9,15108 16335.8,15066.7 16188.6,15108 16188.6,15053.1 
													"/>
					</g>
				</g>
			</g>
		</g>
	</g>
</g>
</svg>
