<?xml version="1.0" encoding="utf-8"?>
<!-- Generator: Adobe Illustrator 21.1.0, SVG Export Plug-In . SVG Version: 6.00 Build 0)  -->
<svg version="1.1" id="temp" xmlns="http://www.w3.org/2000/svg" xmlns:xlink="http://www.w3.org/1999/xlink" x="0px" y="0px"
	 viewBox="0 0 2896 2048" style="enable-background:new 0 0 2896 2048;" xml:space="preserve">
<style type="text/css">
	.st0{fill:#FFFFFF;}
	.st1{fill:#FFFFFF;stroke:#FFFFFF;}
	.st2{fill:#FFFFFF;stroke:#000000;}
	.st3{fill:none;stroke:#000000;}
	.st4{fill:none;}
	.st5{fill:#D3D3D3;stroke:#D3D3D3;}
	.st6{fill:#FFFFFF;stroke:#000000;stroke-width:0.8;}
	.st7{fill:none;stroke:#4C4C4C;}
	.st8{fill:#FFFFFF;fill-opacity:0.7;stroke:#000000;stroke-width:1.5;}
	.st9{stroke:#000000;stroke-width:0.2;}
	.st10{fill:#F0F0FF;stroke:#000000;}
	.st11{font-family:'Verdana';}
	.st12{font-size:18.1517px;}
	.st13{font-size:18.1509px;}
	.st14{fill:#FFFFFF;stroke:#000000;stroke-linejoin:round;}
	.st15{fill:#AAAAAA;}
	.st16{font-size:18.5052px;}
	.st17{fill:#222222;}
	.st18{fill:#6D6D6D;}
	.st19{fill:#0E0708;}
	.st20{fill:#999999;}
	.st21{font-size:21.4437px;}
	.st22{font-size:27.7577px;}
</style>
<g>
	<g transform="matrix(0.2934,0,0,0.2934,401.1761,96.835)">
		<g>
			<rect x="-1378.5" y="-330.2" class="st0" width="9870.5" height="6980.2"/>
		</g>
		<g>
			<g>
				<g>
					<g>
						<polygon class="st1" points="4544.2,3241.8 4536.8,3241.8 4536.8,3371.2 3965,3371.2 3965,2720.7 3966.5,2720.4 
							4544.2,2720.4 						"/>
						<g transform="matrix(1,0,0,1,1092.5071,656)">
							<g transform="matrix(1,0,0,1,93.6236,105.2002)">
							</g>
						</g>
					</g>
					<g>
						<polygon class="st1" points="5153.9,3330 4907.9,3330 4907.9,3241.8 4544.2,3241.8 4544.2,2720.4 5153.9,2718.4 						"/>
						<g transform="matrix(1,0,0,1,1279.7543,655.3531)">
							<g transform="matrix(1,0,0,1,98.5595,98.8706)">
							</g>
						</g>
					</g>
					<g>
						<polygon class="st1" points="3918.6,2689.1 2276,2689.1 2276,2679.3 2034.7,2679.3 2034.7,1575.8 2033.6,1575.8 
							2033.6,1267.1 3918.6,1267.1 						"/>
						<g transform="matrix(1,0,0,1,468.1557,186.2089)">
							<g transform="matrix(1,0,0,1,304.6757,229.8437)">
							</g>
						</g>
					</g>
					<g>
						<polygon class="st1" points="3918.6,2690.7 3378.9,2690.7 3378.9,2721.5 3918.6,2721.5 3918.6,3365.4 3012.9,3365.4 
							3012.9,3095.4 3625.4,3095.4 3625.4,3049 2966.5,3049 2966.5,4585.3 2265.6,4585.3 2265.6,2755.4 2276,2755.4 2276,2689.1 
							3918.6,2689.1 						"/>
						<g transform="matrix(1,0,0,1,543.1367,645.8962)">
							<g transform="matrix(1,0,0,1,267.1852,306.485)">
							</g>
						</g>
					</g>
					<g>
						<polygon class="st1" points="4730.5,1255.3 4794.7,1255.3 4794.7,2680.6 3918.6,2683 3918.6,1267.1 3923.3,1267.1 
							3923.3,1328.2 3964.6,1328.2 3964.6,1250 4116.6,1250 4300.4,1063.9 4544.4,1063.9 						"/>
						<g transform="matrix(1,0,0,1,1077.5071,120.5183)">
							<g transform="matrix(1,0,0,1,141.623,261.7041)">
							</g>
						</g>
					</g>
					<g>
						<polygon class="st1" points="6056.6,2680.6 4794.7,2680.6 4794.7,1255.3 6056.6,1255.3 						"/>
						<g transform="matrix(1,0,0,1,1360.7531,182.3769)">
							<g transform="matrix(1,0,0,1,203.9565,230.3787)">
							</g>
						</g>
					</g>
					<g>
						<polygon class="st1" points="4166.6,3732.7 4165.3,3732.7 4165.3,3779.1 4166.6,3779.1 4169.7,4546.6 4169.7,4815 
							3066.1,4815 3066.1,4547.9 2983.8,4547.9 2983.8,4585.3 2966.5,4585.3 2966.5,3411.8 4163.6,3411.8 						"/>
						<g transform="matrix(1,0,0,1,769.7291,879.5091)">
							<g transform="matrix(1,0,0,1,194.4788,226.8176)">
							</g>
						</g>
					</g>
					<g>
						<polygon class="st1" points="2265.6,3038.6 1332.8,3038.6 1332.8,2755.4 2265.6,2755.4 						"/>
						<g transform="matrix(1,0,0,1,241.6079,667.3181)">
							<g transform="matrix(1,0,0,1,150.7644,45.7856)">
							</g>
						</g>
					</g>
					<g>
						<polygon class="st1" points="2265.6,4585.3 2246.7,4585.3 2246.7,4546.6 2160.7,4546.6 2160.7,4815.7 1054.5,4815.7 
							1054.5,4589.6 735.4,4589.6 735.4,4255.6 590.7,4255.6 590.7,3744.4 725.5,3744.4 725.5,3398.6 2265.6,3398.6 						"/>
						<g transform="matrix(1,0,0,1,1.6844,875.2395)">
							<g transform="matrix(1,0,0,1,270.7262,229.0591)">
							</g>
						</g>
					</g>
					<g>
						<polygon class="st1" points="4536.8,3732.7 4213,3732.7 4209.8,3371.2 4536.8,3371.2 						"/>
						<g transform="matrix(1,0,0,1,1171.6625,866.4004)">
							<g transform="matrix(1,0,0,1,52.86,58.4296)">
							</g>
						</g>
					</g>
					<g>
						<polygon class="st1" points="6418.8,3376.4 4907.9,3376.4 4907.9,5430.1 6418.8,5430.1 						"/>
						<g transform="matrix(1,0,0,1,1397.3478,868.0943)">
							<g transform="matrix(1,0,0,1,244.2158,331.9544)">
							</g>
						</g>
					</g>
					<g>
						<polygon class="st1" points="1757.6,2709 725.5,2709 725.5,1622.2 1757.6,1622.2 						"/>
						<g transform="matrix(1,0,0,1,45.2821,300.9811)">
							<g transform="matrix(1,0,0,1,166.8165,175.6685)">
							</g>
						</g>
					</g>
					<g>
						<polygon class="st1" points="6056.6,3330 5194.4,3330 5194.4,2702.6 6056.6,2702.6 						"/>
						<g transform="matrix(1,0,0,1,1489.95,650.2636)">
							<g transform="matrix(1,0,0,1,139.358,101.4153)">
							</g>
						</g>
					</g>
					<g>
						<polygon class="st1" points="4861.5,4577.9 4169.7,4577.9 4216.1,4577.7 4213,3779.1 4861.5,3779.1 						"/>
						<g transform="matrix(1,0,0,1,1158.6867,998.2596)">
							<g transform="matrix(1,0,0,1,111.8306,129.1169)">
							</g>
						</g>
					</g>
					<g>
						<polygon class="st1" points="1286.4,3030.4 1185.2,3030.4 1185.2,3072.9 1511,3072.9 1511,3355.3 725.5,3355.3 725.5,2742.7 
							1286.4,2742.7 						"/>
						<g transform="matrix(1,0,0,1,45.2821,663.2265)">
							<g transform="matrix(1,0,0,1,126.9559,99.0217)">
							</g>
						</g>
					</g>
					<g>
						<polygon class="st1" points="1988.3,2498.9 1804,2498.9 1804,1622.2 1988.3,1622.2 						"/>
						<g transform="matrix(1,0,0,1,393.9151,300.9811)">
							<g transform="matrix(1,0,0,1,29.7918,141.7054)">
							</g>
						</g>
					</g>
					<g>
						<polygon class="st1" points="2212.7,3364.3 1557.4,3364.3 1557.4,3072.9 2212.7,3072.9 						"/>
						<g transform="matrix(1,0,0,1,314.1938,769.9611)">
							<g transform="matrix(1,0,0,1,105.9211,47.1086)">
							</g>
						</g>
					</g>
					<g>
						<polygon class="st1" points="4861.5,3732.7 4583.2,3732.7 4583.2,3288.2 4861.5,3288.2 						"/>
						<g transform="matrix(1,0,0,1,1292.3825,839.5658)">
							<g transform="matrix(1,0,0,1,44.9826,71.8469)">
							</g>
						</g>
					</g>
					<g>
						<polygon class="st1" points="1988.3,2709 1804,2709 1804,2545.3 1988.3,2545.3 						"/>
						<g transform="matrix(1,0,0,1,393.9151,599.392)">
							<g transform="matrix(1,0,0,1,29.7918,26.4631)">
							</g>
						</g>
					</g>
					<g>
						<polygon class="st2" points="4975.1,1181.6 4975.1,1181.6 4994.1,1190.4 6303.6,1190.4 6449.5,1025.1 6500.9,927 
							6538.5,826.7 6555.6,753.7 6568.1,676.2 6569.3,600.9 6557.9,497.1 6529.3,392.2 6490.6,301 6427.9,196.1 6357.2,117.4 
							6264.8,37.6 6175.9,-21.7 6070.9,-76.4 5958.1,-123.2 5834.9,-149.5 5714,-165.4 5586.3,-164.3 5472.3,-151.7 5350.3,-123.2 
							5233.9,-78.7 5127.9,-22.9 5035.5,39.9 4944.3,120.8 4874.8,199.5 4813.2,293 4768.7,389.9 4735.6,499.4 4725.4,598.6 
							4729.9,708.1 4744.8,809.6 4777.8,914.5 4829.4,1010.2 4894.6,1099.7 						"/>
						<g transform="matrix(1,0,0,1,1338.3295,-276.8963)">
							<g transform="matrix(1,0,0,1,298.0426,219.1544)">
							</g>
						</g>
					</g>
					<g>
						<polygon class="st1" points="3918.6,1220.7 3918.6,229.3 1988.3,229.3 1988.3,1220.7 3918.6,1220.7 						"/>
						<g transform="matrix(1,0,0,1,453.4988,-149.2925)">
							<g transform="matrix(1,0,0,1,312.0042,160.2507)">
							</g>
						</g>
					</g>
				</g>
				<g>
					<g>
						<polygon class="st2" points="2982.1,3050.7 3625.4,3049 3625.4,2720.2 2982.1,2721.9 						"/>
						<g>
							<line class="st3" x1="2982.1" y1="3050.7" x2="2982.1" y2="2721.9"/>
							<line class="st3" x1="3062.5" y1="3050.5" x2="3062.5" y2="2721.7"/>
							<line class="st3" x1="3143" y1="3050.3" x2="3143" y2="2721.5"/>
							<line class="st3" x1="3223.4" y1="3050.1" x2="3223.4" y2="2721.3"/>
							<line class="st3" x1="3303.8" y1="3049.9" x2="3303.8" y2="2721.1"/>
							<line class="st3" x1="3384.2" y1="3049.6" x2="3384.2" y2="2720.9"/>
							<line class="st3" x1="3464.6" y1="3049.4" x2="3464.6" y2="2720.6"/>
							<line class="st3" x1="3545" y1="3049.2" x2="3545" y2="2720.4"/>
							<line class="st3" x1="3625.4" y1="3049" x2="3625.4" y2="2720.2"/>
						</g>
						<g>
							<path class="st4" d=""/>
							<polygon class="st5" points="3591.4,2866.2 3591.5,2903.3 3622.3,2884.6 							"/>
							<path class="st5" d="M3625.4,2884.6"/>
						</g>
					</g>
				</g>
				<g>
					<g>
						<polygon class="st2" points="3625.4,3095.4 3384.6,3095.4 3384.6,3367.4 3625.4,3367.4 						"/>
						<g>
							<line class="st3" x1="3625.4" y1="3095.4" x2="3625.4" y2="3367.4"/>
							<line class="st3" x1="3545.2" y1="3095.4" x2="3545.2" y2="3367.4"/>
							<line class="st3" x1="3464.9" y1="3095.4" x2="3464.9" y2="3367.4"/>
							<line class="st3" x1="3384.6" y1="3095.4" x2="3384.6" y2="3367.4"/>
						</g>
						<g>
							<path class="st4" d=""/>
							<polygon class="st5" points="3418.6,3250 3418.6,3212.9 3387.7,3231.4 							"/>
							<path class="st5" d="M3384.6,3231.4"/>
						</g>
					</g>
				</g>
				<g>
					<polygon class="st6" points="2160.7,4585.3 2160.7,4252.7 2258.5,4252.7 2258.5,4585.3 					"/>
				</g>
				<g>
					<polygon class="st6" points="3066.1,4585.3 3066.1,4246.7 2970.9,4246.7 2970.9,4585.3 					"/>
				</g>
				<g>
					<polygon class="st6" points="2265.6,3398.6 2265.6,3741.1 2156.9,3741.1 2156.9,3398.6 					"/>
				</g>
				<g>
					<polygon class="st6" points="2966.5,3411.8 2966.5,3748.4 3071.2,3748.4 3071.2,3411.8 					"/>
				</g>
				<g>
					<polygon class="st6" points="3378.9,2721.5 2949.4,2721.5 2949.4,2689.1 3378.9,2689.1 					"/>
				</g>
				<g transform="matrix(0,-1,1,0,241.7954,758.8892)">
					<g transform="matrix(1,0,0,1,0,0)">
						<g>
							<polygon class="st2" points="-2279.8,1091.6 -2137,1091.6 -2137,1181.6 -2279.8,1181.6 							"/>
						</g>
						<desc>Width:60 Height:200 Depth:60 Elevation:0</desc>
					</g>
					<g transform="matrix(1,0,0,1,46.1493,0)">
						<g>
							<polygon class="st2" points="-2183.1,1091.6 -2040.4,1091.6 -2040.4,1181.6 -2183.1,1181.6 							"/>
						</g>
						<desc>Width:60 Height:200 Depth:60 Elevation:0</desc>
					</g>
				</g>
				<g transform="matrix(0,1,-1,0,226.4986,663.2265)">
					<g transform="matrix(1,0,0,1,0,0)">
						<g>
							<polygon class="st2" points="2079.5,-1059.6 2222.3,-1059.6 2222.3,-977.3 2079.5,-977.3 							"/>
						</g>
						<desc>Width:60 Height:200 Depth:60 Elevation:0</desc>
					</g>
					<g transform="matrix(1,0,0,1,46.1493,0)">
						<g>
							<polygon class="st2" points="2176.1,-1059.6 2318.9,-1059.6 2318.9,-977.3 2176.1,-977.3 							"/>
						</g>
						<desc>Width:60 Height:200 Depth:60 Elevation:0</desc>
					</g>
				</g>
				<g transform="matrix(-1,0,0,-1,1364.0169,643.4384)">
					<g transform="matrix(1,0,0,1,0,0)">
						<g>
							<polygon class="st2" points="-3440.8,-2038.1 -3315.6,-2038.1 -3315.6,-1842.1 -3440.8,-1842.1 							"/>
						</g>
						<desc>Width:60 Height:200 Depth:60 Elevation:0</desc>
					</g>
					<g transform="matrix(1,0,0,1,40.4872,0)">
						<g>
							<polygon class="st2" points="-3356.1,-2038.1 -3230.8,-2038.1 -3230.8,-1842.1 -3356.1,-1842.1 							"/>
						</g>
						<desc>Width:60 Height:200 Depth:60 Elevation:0</desc>
					</g>
				</g>
				<g transform="matrix(1,0,0,1,1285.0331,655.7622)">
					<g transform="matrix(1,0,0,1,0,0)">
						<g>
							<polygon class="st2" points="3275.5,2063.9 3423.8,2063.9 3423.8,2215.3 3275.5,2215.3 							"/>
						</g>
						<desc>Width:60 Height:200 Depth:60 Elevation:0</desc>
					</g>
					<g transform="matrix(1,0,0,1,47.9601,0)">
						<g>
							<polygon class="st2" points="3375.9,2063.9 3524.2,2063.9 3524.2,2215.3 3375.9,2215.3 							"/>
						</g>
						<desc>Width:60 Height:200 Depth:60 Elevation:0</desc>
					</g>
					<g transform="matrix(1,0,0,1,95.9202,0)">
						<g>
							<polygon class="st2" points="3476.3,2063.9 3624.6,2063.9 3624.6,2215.3 3476.3,2215.3 							"/>
						</g>
						<desc>Width:60 Height:200 Depth:60 Elevation:0</desc>
					</g>
					<g transform="matrix(1,0,0,1,143.8802,0)">
						<g>
							<polygon class="st2" points="3576.7,2063.9 3725,2063.9 3725,2215.3 3576.7,2215.3 							"/>
						</g>
						<desc>Width:60 Height:200 Depth:60 Elevation:0</desc>
					</g>
				</g>
				<g transform="matrix(-1,0,0,-1,1476.8733,853.0943)">
					<g transform="matrix(1,0,0,1,0,0)">
						<g>
							<polygon class="st2" points="-3677.1,-2477 -3554.4,-2477 -3554.4,-2389.4 -3677.1,-2389.4 							"/>
						</g>
						<desc>Width:60 Height:200 Depth:60 Elevation:0</desc>
					</g>
					<g transform="matrix(1,0,0,1,39.6579,0)">
						<g>
							<polygon class="st2" points="-3594,-2477 -3471.4,-2477 -3471.4,-2389.4 -3594,-2389.4 							"/>
						</g>
						<desc>Width:60 Height:200 Depth:60 Elevation:0</desc>
					</g>
				</g>
				<g transform="matrix(-1,0,0,-1,1768.666,853.0943)">
					<g transform="matrix(1,0,0,1,0,0)">
						<g>
							<polygon class="st2" points="-4287.9,-2477 -4102.3,-2477 -4102.3,-2339.9 -4287.9,-2339.9 							"/>
						</g>
						<desc>Width:60 Height:200 Depth:60 Elevation:0</desc>
					</g>
					<g transform="matrix(1,0,0,1,60,0)">
						<g>
							<polygon class="st2" points="-4162.3,-2477 -3976.7,-2477 -3976.7,-2339.9 -4162.3,-2339.9 							"/>
						</g>
						<desc>Width:60 Height:200 Depth:60 Elevation:0</desc>
					</g>
				</g>
				<g transform="matrix(0,1,-1,0,1382.2384,998.2596)">
					<g transform="matrix(1,0,0,1,0,0)">
						<g>
							<polygon class="st2" points="2780.8,-3479 2945.8,-3479 2945.8,-3274.6 2780.8,-3274.6 							"/>
						</g>
						<desc>Width:60 Height:200 Depth:60 Elevation:0</desc>
					</g>
					<g transform="matrix(1,0,0,1,53.3334,0)">
						<g>
							<polygon class="st2" points="2892.5,-3479 3057.4,-3479 3057.4,-3274.6 2892.5,-3274.6 							"/>
						</g>
						<desc>Width:60 Height:200 Depth:60 Elevation:0</desc>
					</g>
				</g>
				<g transform="matrix(0,-2.2038,0.9394,0,1.8312,1152.2876)">
					<g>
						<polygon class="st2" points="-1408.1,627.3 -1176.1,627.3 -1176.1,812.9 -1408.1,812.9 						"/>
					</g>
					<g>
						<line class="st7" x1="-1406.2" y1="656.9" x2="-1249.5" y2="813.5"/>
						<line class="st7" x1="-1406.3" y1="705.2" x2="-1297" y2="814.5"/>
						<line class="st7" x1="-1406.6" y1="753.6" x2="-1344.8" y2="814.5"/>
						<line class="st7" x1="-1282.4" y1="628.9" x2="-1174.8" y2="736.4"/>
						<line class="st7" x1="-1382.4" y1="628.9" x2="-1196.7" y2="814.5"/>
						<line class="st7" x1="-1331.2" y1="628.9" x2="-1174.6" y2="785.4"/>
						<line class="st7" x1="-1232.5" y1="628.9" x2="-1174.6" y2="686.8"/>
					</g>
					<g>
						
							<rect x="-1316.3" y="633.5" transform="matrix(-2.535182e-06 -1 1 -2.535182e-06 -2041.2433 -537.8578)" class="st2" width="53.5" height="236.4"/>
					</g>
					<desc>Width:75 Height:120 Depth:60 Elevation:0</desc>
				</g>
				<g transform="matrix(0,-1,1,0,48.4714,1260.2613)">
					<g>
						<polygon class="st2" points="-3329.3,686.9 -2997.8,686.9 -2997.8,872.5 -3329.3,872.5 						"/>
					</g>
					<desc>Width:60 Height:90 Depth:60 Elevation:0</desc>
				</g>
				<g transform="matrix(0,-1,1,0,45.2821,985.8395)">
					<g>
						<polygon class="st2" points="-2754.8,680.2 -2412.7,680.2 -2412.7,865.9 -2754.8,865.9 						"/>
					</g>
					<desc>Width:60 Height:90 Depth:60 Elevation:0</desc>
				</g>
				<g transform="matrix(0,1,-1,0,525.8954,769.9611)">
					<g>
						<polygon class="st2" points="2302.9,-1686.3 2591.4,-1686.3 2591.4,-1531.3 2302.9,-1531.3 						"/>
					</g>
					<desc>Width:60 Height:90 Depth:60 Elevation:0</desc>
				</g>
				<g transform="matrix(0,1,-1,0,528.0948,786.4389)">
					<g>
						<polygon class="st4" points="2337.4,-1690.9 2523,-1690.9 2523,-1528 2337.4,-1528 						"/>
					</g>
					<g>
						<polygon class="st2" points="2352.9,-1660.9 2507.6,-1660.9 2507.6,-1542.4 2352.9,-1542.4 						"/>
					</g>
					<g>
						<circle class="st6" cx="2430.2" cy="-1603.5" r="10.8"/>
					</g>
					<g>
						<circle class="st6" cx="2430.2" cy="-1603.5" r="6.2"/>
					</g>
					<g>
						<polygon class="st2" points="2420.9,-1677.4 2439.5,-1677.4 2439.5,-1634.1 2420.9,-1634.1 						"/>
					</g>
					<desc>Width:60 Height:90 Depth:60 Elevation:0</desc>
				</g>
				<g transform="matrix(0,-1,1,0,314.1939,842.2194)">
					<g>
						<polygon class="st4" points="-2454.2,1243.2 -2327.4,1243.2 -2327.4,1462.8 -2454.2,1462.8 						"/>
					</g>
					<g>
						
							<rect x="-2418.6" y="1210.7" transform="matrix(-2.535182e-06 -1 1 -2.535182e-06 -3663.3223 -1118.2526)" class="st2" width="55.6" height="123.7"/>
						<path class="st2" d="M-2328.9,1380c0,0,3.5,81.2-60.6,81.2c-66.3,0-62.8-81.2-62.8-81.2l-0.3-79.7h123.7V1380z"/>
						
							<rect x="-2395.5" y="1262.7" transform="matrix(-2.535182e-06 -1 1 -2.535182e-06 -3663.3223 -1118.2526)" class="st2" width="9.4" height="19.7"/>
					</g>
					<desc>Width:41 Height:85 Depth:71 Elevation:0</desc>
				</g>
				<g transform="matrix(-1,0,0,-1,262.897,861.27)">
					<g>
						<polygon class="st4" points="-1135.8,-2494.1 -1036.8,-2494.1 -1036.8,-2435.3 -1135.8,-2435.3 						"/>
					</g>
					<g>
						<rect x="-1124.3" y="-2492.5" class="st2" width="34.6" height="18.9"/>
						<rect x="-1081.3" y="-2492.5" class="st2" width="34.6" height="18.9"/>
						<rect x="-1047" y="-2492.5" class="st2" width="10.5" height="18.9"/>
						<rect x="-1134.2" y="-2492.5" class="st2" width="9.9" height="18.9"/>
						<path class="st2" d="M-1089.7-2467.8c0,4.6-1.2,10.2-4.9,15.5c-1.2,1.9-3.1,3.4-3.4,5.3c-0.6,3.4,0.9,8.7,7.7,9.9
							c1.5,0.3,4,0.3,4.9,0.3h-0.3c0.9,0,3.4,0,4.9-0.3c6.8-1.2,8.4-6.5,7.7-9.9c-0.3-1.9-2.2-3.4-3.4-5.3
							c-3.7-5.3-4.9-10.8-4.9-15.5"/>
						<path class="st2" d="M-1098.1-2446.7c0.3,0.6,4.9,5.9,13,5.9c7.4-0.3,11.4-5.3,12.1-5.9"/>
						<path class="st2" d="M-1089.7-2492.5h8.4v24.7c-2.8,0-5.6,0-8.4,0l0,0C-1089.7-2475.8-1089.7-2484.2-1089.7-2492.5z"/>
					</g>
					<g>
						<path class="st2" d="M-1124.3-2482.9c4-1.5,4.6-1.9,4.6-1.9c0,3.4,0,0,0,3.4C-1119.7-2481.4-1120-2481.4-1124.3-2482.9"/>
						<path class="st2" d="M-1047-2482.9c-4-1.5-4.6-1.9-4.6-1.9c0,3.4,0,0,0,3.4C-1051.7-2481.4-1051.3-2481.4-1047-2482.9"/>
					</g>
					<desc>Width:32 Height:97 Depth:19 Elevation:135</desc>
				</g>
				<g transform="matrix(0,-1,1,0,45.2821,843.6484)">
					<g>
						<polygon class="st4" points="-2457.2,680.2 -2330.4,680.2 -2330.4,899.9 -2457.2,899.9 						"/>
					</g>
					<g>
						
							<rect x="-2421.6" y="647.8" transform="matrix(-2.535182e-06 -1 1 -2.535182e-06 -3103.3887 -1684.1699)" class="st2" width="55.6" height="123.7"/>
						<path class="st2" d="M-2331.9,817.1c0,0,3.5,81.2-60.6,81.2c-66.3,0-62.8-81.2-62.8-81.2l-0.3-79.7h123.7V817.1z"/>
						
							<rect x="-2398.5" y="699.8" transform="matrix(-2.535182e-06 -1 1 -2.535182e-06 -3103.3887 -1684.1699)" class="st2" width="9.4" height="19.7"/>
					</g>
					<desc>Width:41 Height:85 Depth:71 Elevation:0</desc>
				</g>
				<g transform="matrix(0,-1,1,0,45.4071,788.0866)">
					<g>
						<polygon class="st2" points="-2340.9,680.5 -1954.6,680.5 -1954.6,862.9 -2340.9,862.9 						"/>
					</g>
					<desc>Width:60 Height:90 Depth:60 Elevation:0</desc>
				</g>
				<g transform="matrix(0,-1,1,0,44.5721,752.8164)">
					<g>
						<polygon class="st4" points="-2267,678.8 -2081.4,678.8 -2081.4,864.4 -2267,864.4 						"/>
					</g>
					<g>
						<polygon class="st2" points="-2251.6,708.8 -2096.9,708.8 -2096.9,848 -2251.6,848 						"/>
					</g>
					<g>
						<circle class="st6" cx="-2174.2" cy="778.4" r="10.8"/>
					</g>
					<g>
						<circle class="st6" cx="-2174.2" cy="778.4" r="6.2"/>
					</g>
					<g>
						<polygon class="st2" points="-2183.5,694.2 -2165,694.2 -2165,737.5 -2183.5,737.5 						"/>
					</g>
					<desc>Width:60 Height:90 Depth:60 Elevation:0</desc>
				</g>
				<g transform="matrix(1,0,0,1,524.0649,322.9042)">
					<desc>Width:60 Height:90 Depth:60 Elevation:0</desc>
					<g>
						<path class="st2" d="M1682.5,1367.1"/>
					</g>
				</g>
				<g transform="matrix(1,0,0,1,468.1557,186.2089)">
					<desc>Width:60 Height:90 Depth:60 Elevation:0</desc>
					<g>
						<polygon class="st2" points="1565.5,1080.9 1725.2,1080.9 1725.2,1461.1 1751.6,1461.1 1751.6,2102.9 1728.7,2102.9 
							1728.7,2493.9 1566.5,2493.1 						"/>
					</g>
				</g>
				<g transform="matrix(-1.3593,0,0,-1.1256,1486.354,643.0049)">
					<g>
						<polygon class="st2" points="-2719.7,-1809.8 -2441.3,-1809.8 -2441.3,-1608.8 -2719.7,-1608.8 						"/>
					</g>
					<g>
						<rect x="-2719.7" y="-1621.2" class="st3" width="278.4" height="12.1"/>
						<path class="st3" d="M-2580.5-1608.8v-12.4"/>
					</g>
					<desc>Width:90 Height:170 Depth:65 Elevation:0</desc>
				</g>
				<g transform="matrix(1,0,0,1,1380.6222,349.3411)">
					<g>
						<polygon class="st2" points="3475.6,1422.4 4139.7,1422.4 4139.7,1827.7 3475.6,1827.7 						"/>
					</g>
					<desc>Width:60 Height:90 Depth:60 Elevation:0</desc>
				</g>
				<g transform="matrix(1,0,0,1,1472.1647,424.8653)">
					<g>
						<polygon class="st4" points="3667.2,1580.5 3852.8,1580.5 3852.8,1730.8 3667.2,1730.8 						"/>
					</g>
					<g>
						<polygon class="st2" points="3682.7,1610.5 3837.3,1610.5 3837.3,1717.6 3682.7,1717.6 						"/>
					</g>
					<g>
						<circle class="st6" cx="3760" cy="1661.2" r="10.8"/>
					</g>
					<g>
						<circle class="st6" cx="3760" cy="1661.2" r="6.2"/>
					</g>
					<g>
						<polygon class="st2" points="3750.7,1593.1 3769.3,1593.1 3769.3,1636.4 3750.7,1636.4 						"/>
					</g>
					<desc>Width:60 Height:90 Depth:60 Elevation:0</desc>
				</g>
				<g transform="matrix(1,0,0,1,1768.666,182.3769)">
					<desc>Width:60 Height:90 Depth:60 Elevation:0</desc>
					<g>
						<polygon class="st2" points="4287.9,1072.9 3030.2,1072.9 3030.2,1272.2 4096.6,1272.2 4096.6,1523.5 4061.5,1529.7 
							4061.5,2051.8 4092.4,2069.6 4092.4,2312.7 3653.5,2312.7 3657.7,2498.2 4287.8,2498.2 						"/>
					</g>
				</g>
				<g transform="matrix(1,0,0,1,1512.7153,188.14)">
					<g>
						<polygon class="st4" points="3752.1,1085 4044,1085 4044,1270.6 3752.1,1270.6 						"/>
					</g>
					<g>
						<polygon class="st2" points="3776.4,1115 4019.6,1115 4019.6,1254.2 3776.4,1254.2 						"/>
					</g>
					<g>
						<circle class="st6" cx="3898" cy="1184.6" r="10.8"/>
					</g>
					<g>
						<circle class="st6" cx="3898" cy="1184.6" r="6.2"/>
					</g>
					<g>
						<polygon class="st2" points="3883.4,1100.4 3902,1100.4 3902,1143.7 3883.4,1143.7 						"/>
					</g>
					<desc>Width:60 Height:90 Depth:60 Elevation:0</desc>
				</g>
				<g transform="matrix(0,1.5713,-1.1325,0,1768.6129,351.8211)">
					<g>
						<polygon class="st2" points="908.6,-3786.1 1146.7,-3786.1 1146.7,-3585 908.6,-3585 						"/>
					</g>
					<g>
						
							<rect x="1067.7" y="-3691.7" transform="matrix(2.535182e-06 1 -1 2.535182e-06 -2543.7859 -4733.9463)" class="st3" width="54.8" height="105.6"/>
						
							<rect x="933.1" y="-3691.7" transform="matrix(2.535182e-06 1 -1 2.535182e-06 -2678.3459 -4599.3862)" class="st3" width="54.8" height="105.6"/>
						
							<rect x="1067.7" y="-3786.9" transform="matrix(2.535182e-06 1 -1 2.535182e-06 -2639.0608 -4829.2212)" class="st3" width="54.8" height="105.6"/>
						
							<rect x="933.1" y="-3786.9" transform="matrix(2.535182e-06 1 -1 2.535182e-06 -2773.6208 -4694.6606)" class="st3" width="54.8" height="105.6"/>
						<line class="st3" x1="960.5" y1="-3772.2" x2="960.5" y2="-3748.7"/>
						<line class="st3" x1="998.6" y1="-3734.1" x2="975.1" y2="-3734.1"/>
						<line class="st3" x1="960.5" y1="-3696.1" x2="960.5" y2="-3719.6"/>
						<line class="st3" x1="922.5" y1="-3734.1" x2="946" y2="-3734.1"/>
						<line class="st3" x1="1094.8" y1="-3772.2" x2="1094.8" y2="-3748.7"/>
						<line class="st3" x1="1132.8" y1="-3734.1" x2="1109.6" y2="-3734.1"/>
						<line class="st3" x1="1094.8" y1="-3696.1" x2="1094.8" y2="-3719.6"/>
						<line class="st3" x1="1057" y1="-3734.1" x2="1080.2" y2="-3734.1"/>
						<line class="st3" x1="960.5" y1="-3676.9" x2="960.5" y2="-3653.4"/>
						<line class="st3" x1="998.6" y1="-3638.9" x2="975.1" y2="-3638.9"/>
						<line class="st3" x1="960.5" y1="-3600.8" x2="960.5" y2="-3624.3"/>
						<line class="st3" x1="922.5" y1="-3638.9" x2="946" y2="-3638.9"/>
						<line class="st3" x1="1094.8" y1="-3676.9" x2="1094.8" y2="-3653.4"/>
						<line class="st3" x1="1132.8" y1="-3638.9" x2="1109.6" y2="-3638.9"/>
						<line class="st3" x1="1094.8" y1="-3600.8" x2="1094.8" y2="-3624.3"/>
						<line class="st3" x1="1057" y1="-3638.9" x2="1080.2" y2="-3638.9"/>
						<line class="st3" x1="998.6" y1="-3772.2" x2="998.6" y2="-3600.8"/>
						<line class="st3" x1="1057" y1="-3772.2" x2="1057" y2="-3600.8"/>
						<line class="st3" x1="979.4" y1="-3620" x2="1019.3" y2="-3620"/>
						<line class="st3" x1="1036.9" y1="-3620" x2="1076.8" y2="-3620"/>
						<line class="st3" x1="979.4" y1="-3658" x2="1019.3" y2="-3658"/>
						<line class="st3" x1="1036.9" y1="-3658" x2="1076.8" y2="-3658"/>
						<line class="st3" x1="979.4" y1="-3715.3" x2="1019.3" y2="-3715.3"/>
						<line class="st3" x1="1036.9" y1="-3715.3" x2="1076.8" y2="-3715.3"/>
						<line class="st3" x1="979.4" y1="-3753.3" x2="1019.3" y2="-3753.3"/>
						<line class="st3" x1="1036.9" y1="-3753.3" x2="1076.8" y2="-3753.3"/>
					</g>
					<g>
						<ellipse class="st0" cx="1094.8" cy="-3638.9" rx="3.9" ry="5.4"/>
						<ellipse class="st0" cx="960.5" cy="-3638.9" rx="3.9" ry="5.4"/>
						<ellipse class="st0" cx="1094.8" cy="-3734.1" rx="3.9" ry="5.4"/>
						<ellipse class="st0" cx="960.5" cy="-3734.1" rx="3.9" ry="5.4"/>
					</g>
					<g>
						<path class="st3" d="M919.1-3592.2h219.3"/>
					</g>
					<desc>Width:77 Height:90 Depth:65 Elevation:0</desc>
				</g>
				<g transform="matrix(1,0,0,1,1369.328,181.0348)">
					<g>
						<polygon class="st8" points="3451.9,1070.1 3795.4,1070.1 3795.4,1168.5 3451.9,1168.5 						"/>
					</g>
					<desc>Width:60 Height:60 Depth:30 Elevation:140</desc>
				</g>
				<g transform="matrix(1,0,0,1,1768.6659,182.3742)">
					<desc>Width:60 Height:60 Depth:50 Elevation:140</desc>
					<g>
						<polygon class="st8" points="4287.9,1072.9 3892.9,1072.9 3892.9,1171.8 4192.3,1171.8 4192.3,1326.6 4289.8,1326.6 						"/>
					</g>
				</g>
				<g transform="matrix(-1,0,0,-1,1628.9539,643.0874)">
					<g>
						<polygon class="st2" points="-3995.4,-2037.3 -3797.4,-2037.3 -3797.4,-1882.8 -3995.4,-1882.8 						"/>
					</g>
					<desc>Width:60 Height:200 Depth:60 Elevation:0</desc>
				</g>
				<g transform="matrix(-1,0,0,-1,1564.9339,643.1343)">
					<g>
						<polygon class="st2" points="-3861.4,-2037.4 -3618.3,-2037.4 -3618.3,-1816.2 -3861.4,-1816.2 						"/>
					</g>
					<desc>Width:60 Height:200 Depth:60 Elevation:0</desc>
				</g>
				<g transform="matrix(1,0,0,1,1628.9539,643.0874)">
					<desc>Width:60 Height:60 Depth:50 Elevation:140</desc>
					<g>
						<polygon class="st8" points="3995.4,2037.3 3995.4,1943.9 4324.1,1943.9 4324.1,1796.1 4428.8,1796.1 4427.6,2037.5 						"/>
					</g>
				</g>
				<g transform="matrix(0,-1,1,0,1092.5071,643.3533)">
					<g>
						<polygon class="st2" points="-2037.9,2872.5 -1723.5,2872.5 -1723.5,3058.1 -2037.9,3058.1 						"/>
					</g>
					<desc>Width:60 Height:90 Depth:60 Elevation:0</desc>
				</g>
				<g transform="matrix(0,-1,1,0,1092.5071,643.867)">
					<g>
						<polygon class="st8" points="-2039,2872.5 -1722.1,2872.5 -1722.1,2965.3 -2039,2965.3 						"/>
					</g>
					<desc>Width:60 Height:60 Depth:30 Elevation:140</desc>
				</g>
				<g transform="matrix(0,-1,1,0,1092.5071,866.4003)">
					<g>
						<polygon class="st2" points="-2504.8,2872.5 -1855,2872.5 -1855,3058.1 -2504.8,3058.1 						"/>
					</g>
					<desc>Width:60 Height:90 Depth:60 Elevation:0</desc>
				</g>
				<g transform="matrix(0,-1,1,0,1092.5071,867.3924)">
					<g>
						<polygon class="st8" points="-2506.9,2872.5 -1853.2,2872.5 -1853.2,2976.3 -2506.9,2976.3 						"/>
					</g>
					<desc>Width:60 Height:60 Depth:30 Elevation:140</desc>
				</g>
				<g transform="matrix(1,0,0,1,1173.02,1256.6496)">
					<desc>Width:60 Height:90 Depth:60 Elevation:0</desc>
					<g>
						<polygon class="st2" points="3041,3321.7 3041,3131.6 3482.5,3131.6 3482.5,2522.4 3686.5,2522.4 3686.4,3322 						"/>
					</g>
				</g>
				<g transform="matrix(0,1,-1,0,1382.2385,1105.7833)">
					<g>
						<polygon class="st8" points="3005.9,-3479 3472.1,-3479 3472.1,-3367.3 3005.9,-3367.3 						"/>
					</g>
					<desc>Width:60 Height:60 Depth:30 Elevation:140</desc>
				</g>
				<g transform="matrix(1,0,0,1,1489.95,650.4668)">
					<g>
						<polygon class="st2" points="3704.4,2052.8 3990.4,2052.8 3990.4,2235.6 3704.4,2235.6 						"/>
					</g>
					<desc>Width:60 Height:90 Depth:60 Elevation:0</desc>
				</g>
				<g transform="matrix(1,0,0,1,1505.3541,653.4099)">
					<g>
						<polygon class="st4" points="3736.7,2058.9 3922.3,2058.9 3922.3,2232.6 3736.7,2232.6 						"/>
					</g>
					<g>
						<polygon class="st2" points="3752.1,2089 3906.8,2089 3906.8,2217.2 3752.1,2217.2 						"/>
					</g>
					<g>
						<circle class="st6" cx="3829.5" cy="2152.1" r="10.8"/>
					</g>
					<g>
						<circle class="st6" cx="3829.5" cy="2152.1" r="6.2"/>
					</g>
					<g>
						<polygon class="st2" points="3820.2,2073.4 3838.8,2073.4 3838.8,2116.7 3820.2,2116.7 						"/>
					</g>
					<desc>Width:60 Height:90 Depth:60 Elevation:0</desc>
				</g>
				<g transform="matrix(1,0,0,1,1489.95,650.4667)">
					<g>
						<polygon class="st8" points="3704.4,2052.8 3994.1,2052.8 3994.1,2167.5 3704.4,2167.5 						"/>
					</g>
					<desc>Width:60 Height:60 Depth:30 Elevation:140</desc>
				</g>
				<g transform="matrix(1,0,0,1,1583.5899,650.2636)">
					<g>
						<polygon class="st2" points="3900.5,2052.4 4469.9,2052.4 4469.9,2211.6 3900.5,2211.6 						"/>
					</g>
					<desc>Width:60 Height:90 Depth:60 Elevation:0</desc>
				</g>
				<g transform="matrix(1,0,0,1,1583.59,650.2636)">
					<g>
						<polygon class="st8" points="3900.5,2052.4 4468.9,2052.4 4468.9,2167.3 3900.5,2167.3 						"/>
					</g>
					<desc>Width:60 Height:60 Depth:30 Elevation:140</desc>
				</g>
				<g transform="matrix(-1,0,0,-1,1538.02,853.0943)">
					<g>
						<polygon class="st2" points="-3805.1,-2477 -3656.4,-2477 -3656.4,-2345.1 -3805.1,-2345.1 						"/>
					</g>
					<desc>Width:60 Height:200 Depth:60 Elevation:0</desc>
				</g>
				<g transform="matrix(1,0,0,1,453.1557,171.2089)">
					<desc>Width:60 Height:90 Depth:60 Elevation:0</desc>
					<g>
						<polygon class="st2" points="1534.1,1049.5 1534.1,56.4 3464.4,56.4 3470.1,1049.5 						"/>
					</g>
				</g>
				<g>
					<polygon points="2174.1,4267.5 2245.6,4267.5 2245.6,4335.1 2174.1,4335.1 					"/>
				</g>
				<g transform="matrix(1,0,0,1,0,0)">
					<polygon points="2983.8,4264.9 3055.3,4264.9 3055.3,4332.5 2983.8,4332.5 					"/>
				</g>
				<g>
					<polygon points="2251.2,3398 2251.2,3434.2 2175.3,3434.2 2175.3,3398 					"/>
				</g>
				<g>
					<polygon points="2174.3,3651.8 2248.7,3651.8 2248.7,3719.1 2174.3,3719.1 					"/>
				</g>
				<g transform="matrix(1,0,0,1,0,0)">
					<polygon points="3058.3,3410.1 3058.3,3446.3 2982.3,3446.3 2982.3,3410.1 					"/>
				</g>
				<g transform="matrix(1,0,0,1,0,0)">
					<polygon points="2985.6,3658.5 3060,3658.5 3060,3725.8 2985.6,3725.8 					"/>
				</g>
				<g>
					<polygon class="st9" points="725.5,1622.2 2033.6,1622.2 1987.2,1575.8 679.1,1575.8 					"/>
					<g>
						<polygon class="st2" points="962,1622.2 1529.9,1622.2 1529.9,1575.8 962,1575.8 						"/>
						<g>
							<polygon class="st2" points="962,1622.2 1529.9,1622.2 1529.9,1575.8 962,1575.8 							"/>
						</g>
						<g>
							<g>
								<polygon class="st4" points="962,1622.2 1245.9,1622.2 1245.9,1575.8 962,1575.8 								"/>
							</g>
							<path class="st3" d="M1245.9,1575.8c0-189.3-94.6-283.9-283.9-283.9v283.9H1245.9z"/>
						</g>
						<g>
							<g>
								<polygon class="st4" points="1245.9,1622.2 1529.9,1622.2 1529.9,1575.8 1245.9,1575.8 								"/>
							</g>
							<path class="st3" d="M1245.9,1575.8c0-189.3,94.6-283.9,283.9-283.9v283.9H1245.9z"/>
						</g>
					</g>
				</g>
				<g>
					<polygon class="st9" points="2033.6,1622.2 2033.6,1267.1 1987.2,1220.7 1987.2,1575.8 					"/>
				</g>
				<g>
					<polygon class="st9" points="2033.6,1267.1 3964.3,1267.1 3917.9,1220.7 1987.2,1220.7 					"/>
					<g>
						<polygon class="st2" points="2267.2,1267.1 3686.8,1267.1 3686.8,1220.7 2267.2,1220.7 						"/>
						<g>
							<polygon class="st1" points="2267.2,1267.1 3686.8,1267.1 3686.8,1220.7 2267.2,1220.7 							"/>
						</g>
					</g>
				</g>
				<g>
					<polygon class="st9" points="3964.3,1267.1 3964.3,1250 3917.9,1203.6 3917.9,1220.7 					"/>
				</g>
				<g>
					<polygon class="st9" points="4730.5,1255.3 6056.6,1255.3 6103,1208.9 4750.1,1208.9 					"/>
					<g>
						<polygon class="st10" points="5174.3,1255.3 5665.3,1255.3 5665.3,1208.9 5174.3,1208.9 						"/>
						<g>
							<polygon class="st10" points="5174.3,1255.3 5665.3,1255.3 5665.3,1208.9 5174.3,1208.9 							"/>
						</g>
						<g>
							<line class="st3" x1="5197.5" y1="1232.1" x2="5642.1" y2="1232.1"/>
							<line class="st3" x1="5197.5" y1="1255.3" x2="5197.5" y2="1208.9"/>
							<line class="st3" x1="5642.1" y1="1255.3" x2="5642.1" y2="1208.9"/>
						</g>
					</g>
				</g>
				<g>
					<polygon class="st9" points="6056.6,1255.3 6056.6,3330 6103,3376.4 6103,1208.9 					"/>
					<g>
						<polygon class="st10" points="6056.6,1541.8 6056.6,1702.1 6103,1702.1 6103,1541.8 						"/>
						<g>
							<polygon class="st10" points="6056.6,1541.8 6056.6,1702.1 6103,1702.1 6103,1541.8 							"/>
						</g>
						<g>
							<line class="st3" x1="6079.7" y1="1565" x2="6079.7" y2="1678.9"/>
							<line class="st3" x1="6056.5" y1="1565" x2="6102.9" y2="1565"/>
							<line class="st3" x1="6056.5" y1="1678.9" x2="6102.9" y2="1678.9"/>
						</g>
					</g>
					<g>
						<polygon class="st10" points="6056.6,2267.3 6056.6,2427.6 6103,2427.6 6103,2267.3 						"/>
						<g>
							<polygon class="st10" points="6056.6,2267.3 6056.6,2427.6 6103,2427.6 6103,2267.3 							"/>
						</g>
						<g>
							<line class="st3" x1="6079.7" y1="2290.5" x2="6079.7" y2="2404.4"/>
							<line class="st3" x1="6056.5" y1="2290.5" x2="6102.9" y2="2290.5"/>
							<line class="st3" x1="6056.5" y1="2404.4" x2="6102.9" y2="2404.4"/>
						</g>
					</g>
					<g>
						<polygon class="st2" points="6056.6,2896.6 6056.6,3149.7 6103,3149.7 6103,2896.6 						"/>
						<g>
							<polygon class="st2" points="6056.6,2896.6 6056.6,3149.7 6103,3149.7 6103,2896.6 							"/>
						</g>
						<g>
							<g>
								<polygon class="st4" points="6056.6,2896.6 6056.6,3149.7 6103,3149.7 6103,2896.6 								"/>
							</g>
							<path class="st3" d="M6103,2896.6c168.7,0,253.1,84.4,253.1,253.1H6103V2896.6z"/>
						</g>
					</g>
				</g>
				<g>
					<polygon class="st9" points="6056.6,3330 4861.5,3330 4907.9,3376.4 6103,3376.4 					"/>
					<g>
						<polygon class="st2" points="5639.2,3330 5368.1,3330 5368.1,3376.4 5639.2,3376.4 						"/>
						<g>
							<polygon class="st2" points="5639.2,3330 5368.1,3330 5368.1,3376.4 5639.2,3376.4 							"/>
						</g>
						<g>
							<g>
								<polygon class="st4" points="5639.2,3330 5368.1,3330 5368.1,3376.4 5639.2,3376.4 								"/>
							</g>
							<path class="st3" d="M5368.1,3330c0-180.7,90.3-271,271-271v271H5368.1z"/>
						</g>
					</g>
				</g>
				<g>
					<polygon class="st9" points="4861.5,3330 4861.5,4624.3 4907.9,4624.3 4907.9,3376.4 					"/>
				</g>
				<g>
					<polygon class="st9" points="4861.5,4577.9 4169.7,4577.9 4216.1,4624.3 4907.9,4624.3 					"/>
					<g>
						<polygon class="st10" points="4661.4,4577.9 4388.8,4577.9 4388.8,4624.3 4661.4,4624.3 						"/>
						<g>
							<polygon class="st10" points="4661.4,4577.9 4388.8,4577.9 4388.8,4624.3 4661.4,4624.3 							"/>
						</g>
						<g>
							<line class="st3" x1="4638.2" y1="4601.1" x2="4412" y2="4601.1"/>
							<line class="st3" x1="4638.2" y1="4577.9" x2="4638.2" y2="4624.3"/>
							<line class="st3" x1="4412" y1="4577.9" x2="4412" y2="4624.3"/>
						</g>
					</g>
				</g>
				<g>
					<polygon class="st9" points="4169.7,4577.9 4169.7,4815 4216.1,4861.4 4216.1,4624.3 					"/>
				</g>
				<g>
					<polygon class="st9" points="4169.7,4815 3066.1,4815 3019.7,4861.4 4216.1,4861.4 					"/>
					<g>
						<polygon class="st10" points="4068.1,4815 3769.8,4815 3769.8,4861.4 4068.1,4861.4 						"/>
						<g>
							<polygon class="st10" points="4068.1,4815 3769.8,4815 3769.8,4861.4 4068.1,4861.4 							"/>
						</g>
						<g>
							<line class="st3" x1="4044.9" y1="4838.2" x2="3793" y2="4838.2"/>
							<line class="st3" x1="4044.9" y1="4815" x2="4044.9" y2="4861.4"/>
							<line class="st3" x1="3793" y1="4815" x2="3793" y2="4861.4"/>
						</g>
					</g>
					<g>
						<polygon class="st10" points="3743.2,4815 3458.2,4815 3458.2,4861.4 3743.2,4861.4 						"/>
						<g>
							<polygon class="st10" points="3743.2,4815 3458.2,4815 3458.2,4861.4 3743.2,4861.4 							"/>
						</g>
						<g>
							<line class="st3" x1="3720" y1="4838.2" x2="3481.4" y2="4838.2"/>
							<line class="st3" x1="3720" y1="4815" x2="3720" y2="4861.4"/>
							<line class="st3" x1="3481.4" y1="4815" x2="3481.4" y2="4861.4"/>
						</g>
					</g>
					<g>
						<polygon class="st10" points="3419.7,4815 3151.9,4815 3151.9,4861.4 3419.7,4861.4 						"/>
						<g>
							<polygon class="st10" points="3419.7,4815 3151.9,4815 3151.9,4861.4 3419.7,4861.4 							"/>
						</g>
						<g>
							<line class="st3" x1="3396.5" y1="4838.2" x2="3175.1" y2="4838.2"/>
							<line class="st3" x1="3396.5" y1="4815" x2="3396.5" y2="4861.4"/>
							<line class="st3" x1="3175.1" y1="4815" x2="3175.1" y2="4861.4"/>
						</g>
					</g>
				</g>
				<g>
					<polygon class="st9" points="3066.1,4815 3066.1,4585.3 3019.7,4631.7 3019.7,4861.4 					"/>
				</g>
				<g>
					<polygon class="st9" points="3066.1,4585.3 2160.7,4585.3 2207.1,4631.7 3019.7,4631.7 					"/>
					<g>
						<polygon class="st10" points="2460.1,4585.3 2290.4,4585.3 2290.4,4631.7 2460.1,4631.7 						"/>
						<g>
							<polygon class="st10" points="2460.1,4585.3 2290.4,4585.3 2290.4,4631.7 2460.1,4631.7 							"/>
						</g>
						<g>
							<line class="st3" x1="2436.9" y1="4608.4" x2="2313.6" y2="4608.4"/>
							<line class="st3" x1="2436.9" y1="4585.2" x2="2436.9" y2="4631.6"/>
							<line class="st3" x1="2313.6" y1="4585.2" x2="2313.6" y2="4631.6"/>
						</g>
					</g>
					<g>
						<polygon class="st10" points="2943.8,4585.3 2787.3,4585.3 2787.3,4631.7 2943.8,4631.7 						"/>
						<g>
							<polygon class="st10" points="2943.8,4585.3 2787.3,4585.3 2787.3,4631.7 2943.8,4631.7 							"/>
						</g>
						<g>
							<line class="st3" x1="2920.6" y1="4608.4" x2="2810.5" y2="4608.4"/>
							<line class="st3" x1="2920.6" y1="4585.2" x2="2920.6" y2="4631.6"/>
							<line class="st3" x1="2810.5" y1="4585.2" x2="2810.5" y2="4631.6"/>
						</g>
					</g>
					<g>
						<polygon class="st2" points="2774.5,4585.3 2487.1,4585.3 2487.1,4631.7 2774.5,4631.7 						"/>
						<g>
							<polygon class="st2" points="2774.5,4585.3 2487.1,4585.3 2487.1,4631.7 2774.5,4631.7 							"/>
						</g>
						<g>
							<g>
								<polygon class="st4" points="2774.5,4585.3 2487.1,4585.3 2487.1,4631.7 2774.5,4631.7 								"/>
							</g>
							<path class="st3" d="M2774.5,4585.3c0-191.6-95.8-287.5-287.5-287.5v287.5H2774.5z"/>
						</g>
					</g>
				</g>
				<g>
					<polygon class="st9" points="2160.7,4585.3 2160.7,4815.7 2207.1,4862.1 2207.1,4631.7 					"/>
				</g>
				<g>
					<polygon class="st9" points="735.4,4255.6 590.7,4255.6 544.3,4302 689,4302 					"/>
				</g>
				<g>
					<polygon class="st9" points="590.7,3744.4 725.5,3744.4 679.1,3698 544.3,3698 					"/>
				</g>
				<g>
					<polygon class="st9" points="725.5,3744.4 725.5,1622.2 679.1,1575.8 679.1,3698 					"/>
					<g>
						<polygon class="st10" points="725.5,2673.6 725.5,2374 679.1,2374 679.1,2673.6 						"/>
						<g>
							<polygon class="st10" points="725.5,2673.6 725.5,2374 679.1,2374 679.1,2673.6 							"/>
						</g>
						<g>
							<line class="st3" x1="702.3" y1="2650.4" x2="702.3" y2="2397.2"/>
							<line class="st3" x1="725.5" y1="2650.4" x2="679.1" y2="2650.4"/>
							<line class="st3" x1="725.5" y1="2397.2" x2="679.1" y2="2397.2"/>
						</g>
					</g>
					<g>
						<polygon class="st10" points="725.5,3322.8 725.5,3115.7 679.1,3115.7 679.1,3322.8 						"/>
						<g>
							<polygon class="st10" points="725.5,3322.8 725.5,3115.7 679.1,3115.7 679.1,3322.8 							"/>
						</g>
						<g>
							<line class="st3" x1="702.3" y1="3299.5" x2="702.3" y2="3138.9"/>
							<line class="st3" x1="725.5" y1="3299.5" x2="679.1" y2="3299.5"/>
							<line class="st3" x1="725.5" y1="3138.9" x2="679.1" y2="3138.9"/>
						</g>
					</g>
				</g>
				<g>
					<polygon class="st9" points="3964.3,1250 4116.6,1250 4097.2,1203.6 3917.9,1203.6 					"/>
				</g>
				<g>
					<polygon class="st9" points="4300.4,1063.9 4544.4,1063.9 4564.1,1017.5 4281,1017.5 					"/>
					<g>
						<polygon class="st10" points="4309.3,1063.9 4525.7,1063.9 4525.7,1017.5 4309.3,1017.5 						"/>
						<g>
							<polygon class="st10" points="4309.3,1063.9 4525.7,1063.9 4525.7,1017.5 4309.3,1017.5 							"/>
						</g>
						<g>
							<line class="st3" x1="4332.5" y1="1040.7" x2="4502.5" y2="1040.7"/>
							<line class="st3" x1="4332.5" y1="1063.9" x2="4332.5" y2="1017.5"/>
							<line class="st3" x1="4502.5" y1="1063.9" x2="4502.5" y2="1017.5"/>
						</g>
					</g>
				</g>
				<g>
					<polygon class="st9" points="544.3,3698 544.3,4302 590.7,4255.6 590.7,3744.4 					"/>
				</g>
				<g>
					<polygon class="st9" points="4300.4,1063.9 4116.6,1250 4097.2,1203.6 4281,1017.5 					"/>
					<g>
						<polygon class="st10" points="4282.6,1081.9 4140.9,1225.4 4107.9,1192.8 4249.6,1049.3 						"/>
						<g>
							<polygon class="st10" points="4282.6,1081.9 4140.9,1225.4 4107.9,1192.8 4249.6,1049.3 							"/>
						</g>
						<g>
							<line class="st3" x1="4249.8" y1="1082.1" x2="4140.7" y2="1192.6"/>
							<line class="st3" x1="4266.3" y1="1098.4" x2="4233.3" y2="1065.8"/>
							<line class="st3" x1="4157.2" y1="1208.9" x2="4124.2" y2="1176.3"/>
						</g>
					</g>
				</g>
				<g>
					<polygon class="st9" points="4544.4,1063.9 4730.5,1255.3 4750.1,1208.9 4564.1,1017.5 					"/>
					<g>
						<polygon class="st10" points="4553.5,1073.3 4699.3,1223.2 4732.5,1190.9 4586.8,1040.9 						"/>
						<g>
							<polygon class="st10" points="4553.5,1073.3 4699.3,1223.2 4732.5,1190.9 4586.8,1040.9 							"/>
						</g>
						<g>
							<line class="st3" x1="4586.3" y1="1073.7" x2="4699.7" y2="1190.4"/>
							<line class="st3" x1="4569.7" y1="1089.9" x2="4602.9" y2="1057.5"/>
							<line class="st3" x1="4683.1" y1="1206.6" x2="4716.4" y2="1174.2"/>
						</g>
					</g>
				</g>
				<g>
					<polygon class="st9" points="2246.7,4631.7 2246.7,4546.6 2160.7,4546.6 2160.7,4631.7 					"/>
				</g>
				<g>
					<polygon class="st9" points="2983.8,4631.7 2983.8,4547.9 3066.1,4547.9 3066.1,4631.7 					"/>
				</g>
				<g>
					<polygon class="st9" points="735.4,4589.6 735.4,4255.6 689,4302 689,4636 					"/>
				</g>
				<g>
					<polygon class="st9" points="735.4,4589.6 1054.5,4589.6 1008.1,4636 689,4636 					"/>
				</g>
				<g>
					<polygon class="st9" points="2160.7,4815.7 1054.5,4815.7 1008.1,4862.1 2207.1,4862.1 					"/>
					<g>
						<polygon class="st10" points="1440.7,4815.7 1177.2,4815.7 1177.2,4862.1 1440.7,4862.1 						"/>
						<g>
							<polygon class="st10" points="1440.7,4815.7 1177.2,4815.7 1177.2,4862.1 1440.7,4862.1 							"/>
						</g>
						<g>
							<line class="st3" x1="1417.5" y1="4838.9" x2="1200.4" y2="4838.9"/>
							<line class="st3" x1="1417.5" y1="4815.7" x2="1417.5" y2="4862.1"/>
							<line class="st3" x1="1200.4" y1="4815.7" x2="1200.4" y2="4862.1"/>
						</g>
					</g>
					<g>
						<polygon class="st10" points="1746.1,4815.7 1484.1,4815.7 1484.1,4862.1 1746.1,4862.1 						"/>
						<g>
							<polygon class="st10" points="1746.1,4815.7 1484.1,4815.7 1484.1,4862.1 1746.1,4862.1 							"/>
						</g>
						<g>
							<line class="st3" x1="1722.9" y1="4838.9" x2="1507.3" y2="4838.9"/>
							<line class="st3" x1="1722.9" y1="4815.7" x2="1722.9" y2="4862.1"/>
							<line class="st3" x1="1507.3" y1="4815.7" x2="1507.3" y2="4862.1"/>
						</g>
					</g>
					<g>
						<polygon class="st10" points="2072.4,4815.7 1797,4815.7 1797,4862.1 2072.4,4862.1 						"/>
						<g>
							<polygon class="st10" points="2072.4,4815.7 1797,4815.7 1797,4862.1 2072.4,4862.1 							"/>
						</g>
						<g>
							<line class="st3" x1="2049.2" y1="4838.9" x2="1820.2" y2="4838.9"/>
							<line class="st3" x1="2049.2" y1="4815.7" x2="2049.2" y2="4862.1"/>
							<line class="st3" x1="1820.2" y1="4815.7" x2="1820.2" y2="4862.1"/>
						</g>
					</g>
				</g>
				<g>
					<polygon class="st9" points="1054.5,4589.6 1054.5,4815.7 1008.1,4862.1 1008.1,4636 					"/>
				</g>
				<g>
					<polygon class="st9" points="2265.6,3398.6 2265.6,3038.6 2212.7,3072.9 2212.7,3364.3 					"/>
				</g>
				<g>
					<polygon class="st9" points="1332.8,3038.6 1332.8,2755.4 1286.4,2709 1286.4,3072.9 					"/>
				</g>
				<g>
					<polygon class="st9" points="679.1,3398.6 1557.4,3398.6 1511,3355.3 679.1,3355.3 					"/>
				</g>
				<g>
					<polygon class="st9" points="1557.4,3398.6 2265.6,3398.6 2212.7,3364.3 1557.4,3364.3 					"/>
				</g>
				<g>
					<polygon class="st9" points="2265.6,3038.6 1511,3038.6 1511,3072.9 2212.7,3072.9 					"/>
					<g>
						<polygon class="st2" points="2006.1,3038.6 1780,3038.6 1780,3072.9 2006.1,3072.9 						"/>
						<g>
							<polygon class="st2" points="2006.1,3038.6 1780,3038.6 1780,3072.9 2006.1,3072.9 							"/>
						</g>
						<g>
							<g>
								<polygon class="st4" points="2006.1,3038.6 1780,3038.6 1780,3072.9 2006.1,3072.9 								"/>
							</g>
							<path class="st3" d="M2006.1,3072.9c0,150.7-75.3,226-226,226v-226H2006.1z"/>
						</g>
					</g>
				</g>
				<g>
					<polygon class="st9" points="1511,3038.6 1511,3355.3 1557.4,3398.6 1557.4,3072.9 					"/>
				</g>
				<g>
					<polygon class="st9" points="2034.7,2679.3 2034.7,1575.8 1988.3,1575.8 1988.3,2755.4 					"/>
				</g>
				<g>
					<polygon class="st9" points="1804,2755.4 1804,1575.8 1757.6,1575.8 1757.6,2755.4 					"/>
					<g>
						<polygon class="st2" points="1804,2341.7 1804,1758.3 1757.6,1758.3 1757.6,2341.7 						"/>
						<g>
							<polygon class="st1" points="1804,2341.7 1804,1758.3 1757.6,1758.3 1757.6,2341.7 							"/>
						</g>
						<g>
							<g>
								<polygon class="st4" points="1804,2341.7 1804,2034.5 1757.6,2034.5 1757.6,2341.7 								"/>
							</g>
							<path class="st2" d="M1780.8,2341.7h-12.4v-307.2h12.4V2341.7z"/>
						</g>
						<g>
							<g>
								<polygon class="st4" points="1804,2065.5 1804,1758.3 1757.6,1758.3 1757.6,2065.5 								"/>
							</g>
							<path class="st2" d="M1780.8,2065.5h12.4v-307.2h-12.4V2065.5z"/>
						</g>
					</g>
				</g>
				<g>
					<polygon class="st9" points="1757.6,2545.3 2034.7,2545.3 2034.7,2498.9 1757.6,2498.9 					"/>
				</g>
				<g>
					<polygon class="st9" points="1286.4,2709 679.1,2709 679.1,2742.7 1286.4,2742.7 					"/>
					<g>
						<polygon class="st2" points="1169.7,2709 935.6,2709 935.6,2742.7 1169.7,2742.7 						"/>
						<g>
							<polygon class="st2" points="1169.7,2709 935.6,2709 935.6,2742.7 1169.7,2742.7 							"/>
						</g>
						<g>
							<g>
								<polygon class="st4" points="1169.7,2709 935.6,2709 935.6,2742.7 1169.7,2742.7 								"/>
							</g>
							<path class="st3" d="M935.6,2742.7c0,156.1,78,234.1,234.1,234.1v-234.1H935.6z"/>
						</g>
					</g>
				</g>
				<g>
					<polygon class="st9" points="1332.8,2755.4 2034.7,2755.4 2034.7,2709 1286.4,2709 					"/>
					<g>
						<polygon class="st2" points="1455,2755.4 1717.8,2755.4 1717.8,2709 1455,2709 						"/>
						<g>
							<polygon class="st2" points="1455,2755.4 1717.8,2755.4 1717.8,2709 1455,2709 							"/>
						</g>
						<g>
							<g>
								<polygon class="st4" points="1455,2755.4 1717.8,2755.4 1717.8,2709 1455,2709 								"/>
							</g>
							<path class="st3" d="M1455,2709c0-175.2,87.6-262.8,262.8-262.8V2709L1455,2709z"/>
						</g>
					</g>
					<g>
						<polygon class="st2" points="1815.5,2755.4 1980.8,2755.4 1980.8,2709 1815.5,2709 						"/>
						<g>
							<polygon class="st2" points="1815.5,2755.4 1980.8,2755.4 1980.8,2709 1815.5,2709 							"/>
						</g>
						<g>
							<g>
								<polygon class="st4" points="1815.5,2755.4 1980.8,2755.4 1980.8,2709 1815.5,2709 								"/>
							</g>
							<path class="st3" d="M1980.8,2755.4c0,110.2-55.1,165.3-165.3,165.3v-165.3H1980.8z"/>
						</g>
					</g>
				</g>
				<g>
					<polygon class="st9" points="1511,3038.6 1332.8,3038.6 1286.4,3072.9 1511,3072.9 					"/>
				</g>
				<g>
					<polygon class="st9" points="1286.4,3030.4 1185.2,3030.4 1185.2,3072.9 1286.4,3072.9 					"/>
				</g>
				<g>
					<polygon class="st9" points="1988.3,2755.4 2276,2755.4 2276,2679.3 2034.7,2679.3 					"/>
				</g>
				<g>
					<polygon class="st9" points="3965,2331.2 3965,2682.9 3918.6,2722.5 3918.6,2331.2 					"/>
				</g>
				<g>
					<polygon class="st9" points="3965,2682.9 5153.9,2680.6 5154,2720 3918.6,2722.5 					"/>
					<g>
						<polygon class="st2" points="4213.2,2682.4 4508.8,2681.9 4508.8,2721.3 4213.3,2721.9 						"/>
						<g>
							<polygon class="st1" points="4213.2,2682.4 4508.8,2681.9 4508.8,2721.3 4213.3,2721.9 							"/>
						</g>
					</g>
				</g>
				<g>
					<polygon class="st9" points="3964.6,1220.7 3964.6,1328.2 3923.3,1328.2 3923.3,1220.7 					"/>
				</g>
				<g>
					<polygon class="st9" points="6103,2702.6 5194.4,2702.6 5153.9,2680.6 6103,2680.6 					"/>
				</g>
				<g>
					<polygon class="st9" points="5194.4,2702.6 5194.4,3376.4 5153.9,3376.4 5153.9,2680.6 					"/>
					<g>
						<polygon class="st2" points="5194.4,2906.4 5194.4,3147.9 5153.9,3147.9 5153.9,2906.4 						"/>
						<g>
							<polygon class="st1" points="5194.4,2906.4 5194.4,3147.9 5153.9,3147.9 5153.9,2906.4 							"/>
						</g>
					</g>
				</g>
				<g>
					<polygon class="st9" points="3918.6,2683 3918.6,3365.4 3965,3411.8 3965,2683 					"/>
				</g>
				<g>
					<polygon class="st9" points="3918.6,3411.8 4163.6,3411.8 4209.8,3371.2 3918.6,3371.2 					"/>
				</g>
				<g>
					<polygon class="st9" points="4163.6,3411.8 4169.7,4577.9 4216.1,4577.7 4209.8,3371.2 					"/>
					<g>
						<polygon class="st2" points="4163.8,3444.1 4165.1,3689 4211.5,3688.7 4210.2,3443.9 						"/>
						<g>
							<polygon class="st1" points="4163.8,3444.1 4165.1,3689 4211.5,3688.7 4210.2,3443.9 							"/>
						</g>
						<g>
							<g>
								<polygon class="st4" points="4163.8,3444.1 4165.1,3689 4211.5,3688.7 4210.2,3443.9 								"/>
							</g>
							<path class="st2" d="M4193.8,3566.4l-12.4,0.1l0.6,122.4l12.4-0.1L4193.8,3566.4z"/>
						</g>
					</g>
				</g>
				<g>
					<polygon class="st9" points="4165.3,3732.7 4907.9,3732.7 4907.9,3779.1 4165.3,3779.1 					"/>
					<g>
						<polygon class="st2" points="4254.5,3732.7 4492.3,3732.7 4492.3,3779.1 4254.5,3779.1 						"/>
						<g>
							<polygon class="st2" points="4254.5,3732.7 4492.3,3732.7 4492.3,3779.1 4254.5,3779.1 							"/>
						</g>
						<g>
							<g>
								<polygon class="st4" points="4254.5,3732.7 4492.3,3732.7 4492.3,3779.1 4254.5,3779.1 								"/>
							</g>
							<path class="st3" d="M4492.3,3779.1c0,158.5-79.3,237.8-237.8,237.8v-237.8H4492.3z"/>
						</g>
					</g>
				</g>
				<g>
					<polygon class="st9" points="4907.9,3376.4 4907.9,3241.8 4861.5,3288.2 4861.5,3376.4 					"/>
				</g>
				<g>
					<polygon class="st9" points="4907.9,3241.8 4536.8,3241.8 4583.2,3288.2 4861.5,3288.2 					"/>
				</g>
				<g>
					<polygon class="st9" points="4536.8,3241.8 4536.8,3779.1 4583.2,3779.1 4583.2,3288.2 					"/>
					<g>
						<polygon class="st2" points="4536.8,3434.9 4536.8,3605.8 4583.2,3605.8 4583.2,3434.9 						"/>
						<g>
							<polygon class="st2" points="4536.8,3434.9 4536.8,3605.8 4583.2,3605.8 4583.2,3434.9 							"/>
						</g>
						<g>
							<g>
								<polygon class="st4" points="4536.8,3434.9 4536.8,3605.8 4583.2,3605.8 4583.2,3434.9 								"/>
							</g>
							<path class="st3" d="M4536.8,3434.9c-114,0-170.9,57-170.9,170.9h170.9V3434.9z"/>
						</g>
					</g>
				</g>
				<g>
					<polygon class="st9" points="3965,3411.8 2966.5,3411.8 3012.9,3365.4 3918.6,3365.4 					"/>
				</g>
				<g>
					<polygon class="st9" points="2966.5,3411.8 2966.5,3049 3012.9,3095.4 3012.9,3365.4 					"/>
					<g>
						<polygon class="st2" points="2966.5,3342 2966.5,3114.3 3012.9,3114.3 3012.9,3342 						"/>
						<g>
							<polygon class="st2" points="2966.5,3342 2966.5,3114.3 3012.9,3114.3 3012.9,3342 							"/>
						</g>
						<g>
							<g>
								<polygon class="st4" points="2966.5,3342 2966.5,3114.3 3012.9,3114.3 3012.9,3342 								"/>
							</g>
							<path class="st3" d="M2966.5,3342c-151.8,0-227.7-75.9-227.7-227.7h227.7V3342z"/>
						</g>
					</g>
				</g>
				<g>
					<polygon class="st9" points="2966.5,3049 3625.4,3049 3625.4,3095.4 3012.9,3095.4 					"/>
				</g>
				<g>
					<polygon class="st9" points="3918.6,2690.7 3378.9,2690.7 3378.9,2721.5 3918.6,2721.5 					"/>
				</g>
				<g>
					<polygon class="st9" points="4907.9,4624.3 4907.9,5430.1 4861.5,5476.5 4861.5,4624.3 					"/>
				</g>
				<g>
					<polygon class="st9" points="4907.9,5430.1 6418.8,5430.1 6465.2,5476.5 4861.5,5476.5 					"/>
					<g>
						<polygon class="st2" points="4930.1,5430.1 6384.4,5430.1 6384.4,5476.5 4930.1,5476.5 						"/>
						<g>
							<polygon class="st2" points="4930.1,5430.1 6384.4,5430.1 6384.4,5476.5 4930.1,5476.5 							"/>
						</g>
						<g>
							<g>
								<polygon class="st4" points="4930.1,5430.1 6384.4,5430.1 6384.4,5476.5 4930.1,5476.5 								"/>
							</g>
							<line class="st3" x1="4930.1" y1="5476.5" x2="4930.1" y2="5430.1"/>
							<line class="st3" x1="6384.4" y1="5476.5" x2="6384.4" y2="5430.1"/>
							<line class="st3" x1="4930.1" y1="5453.3" x2="6384.4" y2="5453.3"/>
							<line class="st3" x1="4930.1" y1="5445.6" x2="6384.4" y2="5445.6"/>
							<line class="st3" x1="4930.1" y1="5437.9" x2="6384.4" y2="5437.9"/>
						</g>
					</g>
				</g>
				<g>
					<polygon class="st9" points="6465.2,5476.5 6465.2,3330 6418.8,3376.4 6418.8,5430.1 					"/>
				</g>
				<g>
					<polygon class="st9" points="6056.6,3376.4 6418.8,3376.4 6465.2,3330 6056.6,3330 					"/>
				</g>
				<g transform="matrix(1,0,0,1,453.4988,-149.2925)">
					<g transform="matrix(1,0,0,1,211.5004,149.786)">
						<g>
							<text transform="matrix(3.4083 0 0 3.4083 1977.5287 692.1667)" class="st11 st12">BACKYARD LOUNGE</text>
						</g>
					</g>
				</g>
				<g transform="matrix(1,0,0,1,1341.1433,-276.7038)">
					<g transform="matrix(1,0,0,1,274.1649,246.7061)">
						<g>
							<text transform="matrix(3.4083 0 0 3.4083 3966.8525 628.3401)" class="st11 st12">PATIO</text>
						</g>
					</g>
				</g>
				<g transform="matrix(1,0,0,1,393.9151,599.392)">
					<g transform="matrix(1,0,0,1,26.4631,26.4631)">
					</g>
				</g>
				<g transform="matrix(1,0,0,1,1292.3825,839.5658)">
					<g transform="matrix(0,-1,1,0,46.1999,141.7315)">
						<g>
							<text transform="matrix(3.4083 0 0 3.4083 -2745.3269 3387.5718)" class="st11 st12">WINE CELLAR</text>
						</g>
					</g>
				</g>
				<g transform="matrix(1,0,0,1,314.1938,769.9611)">
					<g transform="matrix(1,0,0,1,35.5959,26.3085)">
						<g>
							<text transform="matrix(3.4083 0 0 3.4083 1317.6869 2358.0005)" class="st11 st12">HALF BATH</text>
						</g>
					</g>
				</g>
				<g transform="matrix(1,0,0,1,393.9151,300.9811)">
					<g transform="matrix(1,0,0,1,29.7919,141.7055)">
					</g>
				</g>
				<g transform="matrix(1,0,0,1,45.2821,663.2265)">
					<g transform="matrix(1,0,0,1,0,0)">
						<g transform="matrix(1,0,0,1,126.9559,0)">
							<polygon points="930.5,2095 946,2079.5 961.5,2095 							"/>
						</g>
						<g transform="matrix(1,0,0,1,253.9117,116.7346)">
							<polygon points="1196.3,2308.4 1211.8,2323.9 1196.3,2339.3 							"/>
						</g>
						<g transform="matrix(1,0,0,1,126.9559,198.0434)">
							<polygon points="930.5,2478.6 946,2494.1 961.5,2478.6 							"/>
						</g>
						<g transform="matrix(1,0,0,1,0,116.7346)">
							<polygon points="695.7,2339.3 680.2,2323.9 695.7,2308.4 							"/>
						</g>
					</g>
					<g transform="matrix(0,-1,1,0,100.3613,128.8038)">
						<g>
							<text transform="matrix(3.4083 0 0 3.4083 -2349.1257 890.3394)" class="st11 st12">BATH</text>
						</g>
						<g transform="matrix(1,0,0,1,-26.1953,24.7344)">
							<text transform="matrix(3.4083 0 0 3.4083 -2403.9612 942.119)" class="st11 st12">8&apos;4&quot; x 6&apos;6&quot;</text>
						</g>
					</g>
				</g>
				<g transform="matrix(1,0,0,1,1173.1864,998.2596)">
					<g transform="matrix(1,0,0,1,0,0)">
						<g transform="matrix(1,0,0,1,97.3309,0)">
							<polygon points="3229.6,2796.3 3245.1,2780.8 3260.6,2796.3 							"/>
						</g>
						<g transform="matrix(1,0,0,1,209.1614,129.0607)">
							<polygon points="3463.7,3035.5 3479.2,3051 3463.7,3066.5 							"/>
						</g>
						<g transform="matrix(1,0,0,1,97.3309,258.2337)">
							<polygon points="3229.6,3305.9 3245.1,3321.4 3260.6,3305.9 							"/>
						</g>
						<g transform="matrix(1,0,0,1,0,129.0607)">
							<polygon points="3056.8,3066.5 3041.3,3051 3056.8,3035.5 							"/>
						</g>
					</g>
					<g transform="matrix(1,0,0,1,0.6364,103.3504)">
						<g>
							<text transform="matrix(3.4083 0 0 3.4083 3042.6716 2997.1831)" class="st11 st12">HOME OFFICE</text>
						</g>
						<g transform="matrix(1,0,0,1,11.4141,24.7344)">
							<text transform="matrix(3.4083 0 0 3.4083 3066.5654 3048.9595)" class="st11 st12">6&apos;10&quot; x 8&apos;6&quot;</text>
						</g>
					</g>
				</g>
				<g transform="matrix(1,0,0,1,1489.95,650.2636)">
					<g transform="matrix(1,0,0,1,0,0)">
						<g transform="matrix(1,0,0,1,139.358,0)">
							<polygon points="3980.7,2067.8 3996.2,2052.4 4011.6,2067.8 							"/>
						</g>
						<g transform="matrix(1,0,0,1,278.716,101.4153)">
							<polygon points="4272.4,2249.2 4287.9,2264.7 4272.4,2280.1 							"/>
						</g>
						<g transform="matrix(1,0,0,1,139.358,202.8307)">
							<polygon points="3980.7,2461.5 3996.2,2477 4011.6,2461.5 							"/>
						</g>
						<g transform="matrix(1,0,0,1,0,101.4153)">
							<polygon points="3719.9,2280.1 3704.4,2264.7 3719.9,2249.2 							"/>
						</g>
					</g>
					<g transform="matrix(1,0,0,1,76.8752,95.5636)">
						<g>
							<text transform="matrix(3.4083 0 0 3.4083 3865.363 2252.406)" class="st11 st12">COAT ROOM</text>
						</g>
						<g transform="matrix(1,0,0,1,8.9453,24.7344)">
							<text transform="matrix(3.4083 0 0 3.4083 3884.0869 2304.1855)" class="st11 st12">9&apos;2&quot; x 6&apos;8&quot;</text>
						</g>
					</g>
				</g>
				<g transform="matrix(1,0,0,1,45.2821,300.9811)">
					<g transform="matrix(1,0,0,1,0,0)">
						<g transform="matrix(1,0,0,1,166.8165,0)">
							<polygon points="1014,1336.7 1029.5,1321.2 1044.9,1336.7 							"/>
						</g>
						<g transform="matrix(1,0,0,1,333.633,175.6685)">
							<polygon points="1363.2,1673.5 1378.7,1688.9 1363.2,1704.4 							"/>
						</g>
						<g transform="matrix(1,0,0,1,166.8165,351.337)">
							<polygon points="1014,2041.2 1029.5,2056.7 1044.9,2041.2 							"/>
						</g>
						<g transform="matrix(1,0,0,1,0,175.6685)">
							<polygon points="695.7,1704.4 680.2,1688.9 695.7,1673.5 							"/>
						</g>
					</g>
					<g transform="matrix(1,0,0,1,79.6692,166.0975)">
						<g>
							<text transform="matrix(3.4083 0 0 3.4083 847.0256 1668.8905)" class="st11 st12">GUEST BEDROOM</text>
						</g>
						<g transform="matrix(1,0,0,1,17.8672,24.7344)">
							<text transform="matrix(3.4083 0 0 3.4083 884.4271 1720.6667)" class="st11 st12">10&apos;11&quot; x 11&apos;6&quot;</text>
						</g>
					</g>
				</g>
				<g transform="matrix(1,0,0,1,1397.3478,868.0943)">
					<g transform="matrix(1,0,0,1,218.152,353.0645)">
						<g>
							<text transform="matrix(3.4083 0 0 3.4083 3967.2534 3247.4399)" class="st11 st12">GARAGE</text>
						</g>
					</g>
				</g>
				<g transform="matrix(1,0,0,1,1172.1744,866.4004)">
					<g transform="matrix(1,0,0,1,27.6998,64.4611)">
						<g>
							<text transform="matrix(3.4083 0 0 3.4083 3097.2083 2639.7458)" class="st11 st12">HALL</text>
						</g>
					</g>
				</g>
				<g transform="matrix(1,0,0,1,48.4714,875.2395)">
					<g transform="matrix(1,0,0,1,0,0)">
						<g transform="matrix(1,0,0,1,223.9392,0)">
							<polygon points="1140.2,2538.8 1155.7,2523.3 1171.2,2538.8 							"/>
						</g>
						<g transform="matrix(1,0,0,1,460.7731,308.8519)">
							<polygon points="1636,3154.4 1651.5,3169.8 1636,3185.3 							"/>
						</g>
						<g transform="matrix(1,0,0,1,223.9392,458.1183)">
							<polygon points="1140.2,3466.8 1155.7,3482.3 1171.2,3466.8 							"/>
						</g>
						<g transform="matrix(1,0,0,1,0,308.8519)">
							<polygon points="702.4,3185.3 686.9,3169.8 702.4,3154.4 							"/>
						</g>
					</g>
					<g transform="matrix(1,0,0,1,233.6661,201.5053)">
						<g>
							<text transform="matrix(3.4083 0 0 3.4083 1176.0704 2945.1316)" class="st11 st12">DEN</text>
						</g>
						<g transform="matrix(1,0,0,1,-44.1406,24.7344)">
							<text transform="matrix(3.4083 0 0 3.4083 1083.6687 2996.908)" class="st11 st12">15&apos;1&quot; x 15&apos;0&quot;</text>
						</g>
					</g>
				</g>
				<g transform="matrix(1,0,0,1,273.8029,667.3181)">
					<g transform="matrix(1,0,0,1,0,0)">
						<g transform="matrix(1,0,0,1,118.5694,0)">
							<polygon points="1391.4,2103.5 1406.8,2088.1 1422.3,2103.5 							"/>
						</g>
						<g transform="matrix(1,0,0,1,269.3338,49.3044)">
							<polygon points="1707,2175.8 1722.4,2191.3 1707,2206.7 							"/>
						</g>
						<g transform="matrix(1,0,0,1,118.5694,91.5711)">
							<polygon points="1391.4,2264.3 1406.8,2279.8 1422.3,2264.3 							"/>
						</g>
						<g transform="matrix(1,0,0,1,0,49.3044)">
							<polygon points="1174.1,2206.7 1158.6,2191.3 1174.1,2175.8 							"/>
						</g>
					</g>
					<g transform="matrix(1,0,0,1,112.1092,40.6087)">
						<g>
							<text transform="matrix(3.4083 0 0 3.4083 1393.3066 2173.0688)" class="st11 st12">HALL</text>
						</g>
						<g transform="matrix(1,0,0,1,-32.8438,24.7344)">
							<text transform="matrix(3.4083 0 0 3.4083 1324.5533 2224.8452)" class="st11 st12">8&apos;10&quot; x 3&apos;0&quot;</text>
						</g>
					</g>
				</g>
				<g transform="matrix(1,0,0,1,801.9305,879.5091)">
					<g transform="matrix(1,0,0,1,0,0)">
						<g transform="matrix(1,0,0,1,162.2774,0)">
							<polygon points="2588.4,2547.7 2603.9,2532.2 2619.3,2547.7 							"/>
						</g>
						<g transform="matrix(1,0,0,1,356.1917,294.4205)">
							<polygon points="2994.3,3133.1 3009.8,3148.6 2994.3,3164 							"/>
						</g>
						<g transform="matrix(1,0,0,1,162.2774,453.6352)">
							<polygon points="2588.4,3466.4 2603.9,3481.9 2619.3,3466.4 							"/>
						</g>
						<g transform="matrix(1,0,0,1,0,294.4205)">
							<polygon points="2279.6,3164 2264.2,3148.6 2279.6,3133.1 							"/>
						</g>
					</g>
					<g transform="matrix(1,0,0,1,88.9194,223.3269)">
						<g>
							<text transform="matrix(3.4083 0 0 3.4083 2450.313 2999.7483)" class="st11 st12">FORMAL DINING</text>
						</g>
						<g transform="matrix(1,0,0,1,12.3906,24.7344)">
							<text transform="matrix(3.4083 0 0 3.4083 2476.2493 3051.5278)" class="st11 st12">11&apos;8&quot; x 14&apos;11&quot;</text>
						</g>
					</g>
				</g>
				<g transform="matrix(1,0,0,1,1362.086,182.3769)">
					<g transform="matrix(1,0,0,1,0,0)">
						<g transform="matrix(1,0,0,1,202.6235,0)">
							<polygon points="3845.5,1088.4 3860.9,1072.9 3876.4,1088.4 							"/>
						</g>
						<g transform="matrix(1,0,0,1,406.58,56.972)">
							<polygon points="4272.4,1176.7 4287.9,1192.2 4272.4,1207.6 							"/>
						</g>
						<g transform="matrix(1,0,0,1,202.6235,460.7574)">
							<polygon points="3845.5,2022 3860.9,2037.4 3876.4,2022 							"/>
						</g>
						<g transform="matrix(1,0,0,1,0,56.972)">
							<polygon points="3452.2,1207.6 3436.8,1192.2 3452.2,1176.7 							"/>
						</g>
					</g>
					<g transform="matrix(1,0,0,1,154.2694,113.9988)">
						<g>
							<text transform="matrix(3.4083 0 0 3.4083 3759.7092 1311.5507)" class="st11 st12">KITCHEN</text>
						</g>
						<g transform="matrix(1,0,0,1,-20.2578,24.7344)">
							<text transform="matrix(3.4083 0 0 3.4083 3717.3059 1363.3269)" class="st11 st12">13&apos;4&quot; x 15&apos;1&quot;</text>
						</g>
					</g>
				</g>
				<g transform="matrix(1,0,0,1,1092.3827,120.5183)">
					<g transform="matrix(1,0,0,1,0,0)">
						<g transform="matrix(1,0,0,1,126.7463,0)">
							<polygon points="3122,958.9 3137.5,943.4 3153,958.9 							"/>
						</g>
						<g transform="matrix(1,0,0,1,268.3704,81.8146)">
							<polygon points="3418.5,1099.2 3434,1114.7 3418.5,1130.2 							"/>
						</g>
						<g transform="matrix(1,0,0,1,126.7463,523.0121)">
							<polygon points="3122,2022.8 3137.5,2038.3 3153,2022.8 							"/>
						</g>
						<g transform="matrix(1,0,0,1,0,81.8146)">
							<polygon points="2887.7,1130.2 2872.2,1114.7 2887.7,1099.2 							"/>
						</g>
					</g>
					<g transform="matrix(1,0,0,1,81.7449,256.4378)">
						<g>
							<text transform="matrix(3.4083 0 0 3.4083 3043.3088 1480.2333)" class="st11 st12">BREAKFAST</text>
						</g>
						<g transform="matrix(1,0,0,1,-5.4219,24.7344)">
							<text transform="matrix(3.4083 0 0 3.4083 3031.9619 1532.0096)" class="st11 st12">8&apos;10&quot; x 17&apos;2&quot;</text>
						</g>
					</g>
				</g>
				<g transform="matrix(1,0,0,1,543.1367,645.8962)">
					<g transform="matrix(1,0,0,1,0,0)">
						<g transform="matrix(1,0,0,1,132.7447,0)">
							<polygon points="1984.8,2058.7 2000.3,2043.2 2015.8,2058.7 							"/>
						</g>
						<g transform="matrix(1,0,0,1,226.5924,282.639)">
							<polygon points="2181.3,2619.4 2196.8,2634.9 2181.3,2650.3 							"/>
						</g>
						<g transform="matrix(1,0,0,1,132.7447,612.97)">
							<polygon points="1984.8,3310.9 2000.3,3326.4 2015.8,3310.9 							"/>
						</g>
						<g transform="matrix(1,0,0,1,0,282.639)">
							<polygon points="1737.9,2650.3 1722.4,2634.9 1737.9,2619.4 							"/>
						</g>
					</g>
					<g transform="matrix(1,0,0,1,63.3454,321.3229)">
						<g>
							<text transform="matrix(3.4083 0 0 3.4083 1855.0322 2715.856)" class="st11 st12">ENTRYWAY</text>
						</g>
						<g transform="matrix(1,0,0,1,-2.7734,24.7344)">
							<text transform="matrix(3.4083 0 0 3.4083 1849.2283 2767.6323)" class="st11 st12">7&apos;5&quot; x 20&apos;1&quot;</text>
						</g>
					</g>
				</g>
				<g transform="matrix(1,0,0,1,468.4988,186.5038)">
					<g transform="matrix(1,0,0,1,0,0)">
						<g transform="matrix(1,0,0,1,330.5656,0)">
							<polygon points="2242.7,1097 2258.2,1081.6 2273.6,1097 							"/>
						</g>
						<g transform="matrix(1,0,0,1,609.0083,229.5487)">
							<polygon points="2825.6,1546.6 2841.1,1562.1 2825.6,1577.5 							"/>
						</g>
						<g transform="matrix(1,0,0,1,330.5656,459.3924)">
							<polygon points="2242.7,2027.8 2258.2,2043.2 2273.6,2027.8 							"/>
						</g>
						<g transform="matrix(1,0,0,1,0,229.5487)">
							<polygon points="1581.7,1577.5 1566.2,1562.1 1581.7,1546.6 							"/>
						</g>
					</g>
					<g transform="matrix(1,0,0,1,242.7483,222.1026)">
						<g>
							<text transform="matrix(3.4083 0 0 3.4083 2074.3435 1546.4889)" class="st11 st12">LIVING ROOM</text>
						</g>
						<g transform="matrix(1,0,0,1,5.0156,24.7344)">
							<text transform="matrix(3.4083 0 0 3.4083 2084.8418 1598.2653)" class="st11 st12">20&apos;0&quot; x 15&apos;1&quot;</text>
						</g>
					</g>
				</g>
				<g transform="matrix(1,0,0,1,1279.7543,705.9109)">
					<g transform="matrix(1,0,0,1,0,0)">
						<g transform="matrix(1,0,0,1,114.0799,0)">
							<polygon points="3487.8,2184.3 3503.2,2168.8 3518.7,2184.3 							"/>
						</g>
						<g transform="matrix(1,0,0,1,197.119,48.3128)">
							<polygon points="3661.6,2254.5 3677.1,2270 3661.6,2285.5 							"/>
						</g>
						<g transform="matrix(1,0,0,1,114.0799,118.6548)">
							<polygon points="3487.8,2401.8 3503.2,2417.2 3518.7,2401.8 							"/>
						</g>
						<g transform="matrix(1,0,0,1,0,48.3128)">
							<polygon points="3279.9,2285.5 3264.4,2270 3279.9,2254.5 							"/>
						</g>
					</g>
					<g transform="matrix(1,0,0,1,69.9012,40.2702)">
						<g>
							<text transform="matrix(3.4083 0 0 3.4083 3410.7515 2253.1472)" class="st11 st12">HALL</text>
						</g>
						<g transform="matrix(1,0,0,1,-32.8438,24.7344)">
							<text transform="matrix(3.4083 0 0 3.4083 3341.9983 2304.9268)" class="st11 st12">6&apos;6&quot; x 3&apos;11&quot;</text>
						</g>
					</g>
				</g>
				<g transform="matrix(1,0,0,1,1092.5071,656)">
					<g transform="matrix(1,0,0,1,0,0)">
						<g transform="matrix(1,0,0,1,70,0)">
							<polygon points="3003.5,2079.8 3019,2064.4 3034.5,2079.8 							"/>
						</g>
						<g transform="matrix(1,0,0,1,187.2472,105.2002)">
							<polygon points="3249,2269.1 3264.4,2284.6 3249,2300.1 							"/>
						</g>
						<g transform="matrix(1,0,0,1,70,210.4004)">
							<polygon points="3003.5,2489.3 3019,2504.8 3034.5,2489.3 							"/>
						</g>
						<g transform="matrix(1,0,0,1,0,105.2002)">
							<polygon points="2887.9,2300.1 2872.5,2284.6 2887.9,2269.1 							"/>
						</g>
					</g>
					<g transform="matrix(0.9998,-0.0175,0.0175,0.9998,72.2808,92.148)">
						<g>
							<text transform="matrix(3.4085 0 0 3.4085 2983.9341 2309.947)" class="st11 st13">WET BAR</text>
						</g>
						<g transform="matrix(1,0,0,1,-12.25,24.7344)">
							<text transform="matrix(3.4085 0 0 3.4085 2958.2881 2361.7236)" class="st11 st13">6&apos;2&quot; x 6&apos;11&quot;</text>
						</g>
					</g>
				</g>
				<g transform="matrix(1,0,0,1.4848,199.3938,769.9611)">
					<g>
						<polygon class="st2" points="1002.9,1551 1010.6,1551 1010.6,1736.6 1002.9,1736.6 						"/>
					</g>
					<g>
						<rect x="1002.9" y="1551" class="st14" width="7.7" height="185.6"/>
					</g>
					<desc>Width:2.5 Height:180 Depth:60 Elevation:135</desc>
				</g>
				<g transform="matrix(-0.2756,-0.9613,1.4639,-0.4197,628.4309,199.9455)">
					<g>
						<polygon class="st2" points="-1590.6,999.1 -1582.8,999.1 -1582.8,1184.7 -1590.6,1184.7 						"/>
					</g>
					<g>
						
							<rect x="-1728" y="1089.4" transform="matrix(-2.517769e-06 -1 1 -2.517769e-06 -2678.6379 -494.783)" class="st14" width="282.6" height="5.1"/>
					</g>
					<desc>Width:2.5 Height:180 Depth:60 Elevation:135</desc>
				</g>
				<g transform="matrix(0.2924,-0.9563,1.4223,0.4349,542.9071,173.5996)">
					<g>
						<polygon class="st2" points="-504.9,1314.5 -497.2,1314.5 -497.2,1500.1 -504.9,1500.1 						"/>
					</g>
					<g>
						
							<rect x="-504.9" y="1314.5" transform="matrix(-1 2.538722e-06 -2.538722e-06 -1 -1002.1309 2814.5723)" class="st14" width="7.7" height="185.6"/>
					</g>
					<desc>Width:2.5 Height:180 Depth:60 Elevation:135</desc>
				</g>
				<g transform="matrix(0.2924,-0.9563,1.4223,0.4349,716.149,173.5997)">
					<g>
						<polygon class="st2" points="-398.9,1547.7 -391.2,1547.7 -391.2,1733.3 -398.9,1733.3 						"/>
					</g>
					<g>
						
							<rect x="-398.9" y="1547.7" transform="matrix(-1 2.538722e-06 -2.538722e-06 -1 -790.0452 3280.9263)" class="st14" width="7.7" height="185.6"/>
					</g>
					<desc>Width:2.5 Height:180 Depth:60 Elevation:135</desc>
				</g>
				<g transform="matrix(-0.2756,-0.9613,1.4639,-0.4197,804.0219,198.7941)">
					<g>
						<polygon class="st2" points="-1689.6,1231.6 -1681.8,1231.6 -1681.8,1417.2 -1689.6,1417.2 						"/>
					</g>
					<g>
						
							<rect x="-1827" y="1321.8" transform="matrix(-2.517769e-06 -1 1 -2.517769e-06 -3010.0767 -361.3083)" class="st14" width="282.6" height="5.1"/>
					</g>
					<desc>Width:2.5 Height:180 Depth:60 Elevation:135</desc>
				</g>
				<g transform="matrix(0.2924,-0.9563,1.4223,0.4349,891.0805,173.5997)">
					<g>
						<polygon class="st2" points="-291.8,1783.1 -284.1,1783.1 -284.1,1968.7 -291.8,1968.7 						"/>
					</g>
					<g>
						
							<rect x="-291.8" y="1783.1" transform="matrix(-1 2.538722e-06 -2.538722e-06 -1 -575.8905 3751.8286)" class="st14" width="7.7" height="185.6"/>
					</g>
					<desc>Width:2.5 Height:180 Depth:60 Elevation:135</desc>
				</g>
			</g>
		</g>
	</g>
	<g>
		<g transform="matrix(1,0,0,1,584.3359,645.8128)">
			<text transform="matrix(1 0 0 1 555.1901 1351.9773)" class="st15 st11 st16">SIZES AND DIMENSIONS ARE APPROXIMATE, ACTUAL MAY VARY.</text>
		</g>
		<g transform="matrix(0.0907,0,0,0.0907,1010.5969,613.5095)">
			<desc>Created with Snap</desc>
			<g>
				<g>
					<g>
						<polygon class="st17" points="16978.9,15037 16978.9,14867.6 16974.3,14769.8 16977.9,14769 17017.3,14856.3 17109.9,15026.5 
							17202.5,14856.3 17242.1,14769 17245.5,14769.8 17240.9,14867.6 17240.9,15037 17339.7,15037 17339.7,14619.4 
							17228.1,14619.4 17110.7,14845.5 17109.3,14845.5 16991.8,14619.4 16880.2,14619.4 16880.2,15037 						"/>
						<path class="st17" d="M19887.5,14931.2c0,69.2,37.3,105.7,107.8,105.7h60.9v-85.5h-66.3V14769h71.8v-83.8h-79.7v-80.9h-94.3
							v326.8H19887.5z"/>
						<path class="st17" d="M19860.1,14685.3c0,0-1.5,0-16.7,0c-57.8,0-85.3,39-93.9,65.9c-1.5,0-3.5,0-3.5,0v-65.9h-102.2v351.7
							h102.2c0,0,0-194.6,0-200.2c0-20.7,7.9-35.3,17.9-44.8c17.1-16.5,53.6-21.3,96.2-21.3
							C19860.1,14736,19860.1,14685.3,19860.1,14685.3z"/>
						<path class="st17" d="M18849,14685.3c0,0-1.5,0-16.7,0c-57.8,0-85.3,39-93.9,65.9c-1.5,0-3.5,0-3.5,0v-65.9h-102.2v351.7
							h102.2c0,0,0-194.6,0-200.2c0-20.7,7.9-35.3,17.9-44.8c17.1-16.5,53.6-21.3,96.2-21.3
							C18849,14736,18849,14685.3,18849,14685.3z"/>
						<path class="st17" d="M18250.6,14866.3c0-114.7,60.9-189.4,170-189.4c120.3,0,168.7,87,168.7,185.2v30.4h-232.8v3.5
							c0,40.7,21.9,69.2,80.1,69.2c42.8,0,66.3-20,89.1-43.6l51.1,63.6c-32.5,37.3-85.7,60.1-152,60.1
							C18313.4,15045.3,18250.6,14982.3,18250.6,14866.3z M18356.3,14826.9v5.6h127.2v-6.1c0-44.2-20-74-60.9-74
							S18356.3,14781.9,18356.3,14826.9z"/>
						<path class="st17" d="M19260.3,14866.3c0-116.8,63.6-189.4,170-189.4c106.4,0,170,72.6,170,189.4c0,116.8-63.6,179-170,179
							C19323.7,15045.3,19260.3,14983.1,19260.3,14866.3z M19493.7,14892.6v-62.8c0-45.5-23.4-71.8-63.6-71.8
							c-40.1,0-63.6,26.3-63.6,71.8v62.8c0,45.5,23.4,71.8,63.6,71.8C19470.3,14964.4,19493.7,14938.1,19493.7,14892.6z"/>
						<path class="st17" d="M18153.4,14604.4h-91.8v42.1c0,25-8.3,38.6-35.9,38.6h-25.6v83.8h51.1v162.1
							c0,69.2,37.3,105.7,107.8,105.7h60.9v-85.5h-66.3v-182.3h71.8v-83.8h-71.8v-80.7H18153.4z"/>
						<path class="st17" d="M17898.9,14604.4h-91.8v42.1c0,25-8.3,38.6-35.9,38.6h-25.5v83.8h51.1v162.1
							c0,69.2,37.3,105.7,107.8,105.7h60.9v-85.5h-66.3v-182.3h71.8v-83.8h-71.8v-80.7H17898.9z"/>
						<path class="st17" d="M19084.7,14676.8c-47.1,0-87,29-97.4,69.2h-3.5v-60.9h-102.2v457.6h102.2v-166.6h3.5
							c10.4,39.4,50.5,69.2,97.4,69.2c91.8,0,139.7-55.9,139.7-179C19224.2,14743.3,19176.6,14676.8,19084.7,14676.8z
							 M19117.8,14898.1c0,45.5-28.4,64.4-67,64.4c-38.6,0-67-20-67-53.2v-96.1c0-33.2,28.4-53.2,67-53.2s67,29.8,67,75.3V14898.1z"
							/>
						<path class="st17" d="M17681,15037c-36.7,0-62.8-25-69.2-63.6h-4.2c-11.1,47.1-51.1,71.8-106.4,71.8
							c-72.6,0-112.6-42.8-112.6-105.7c0-76.6,59.4-113.3,155.4-113.3h57.4v-11.7c0-35.2-17.3-57.4-60.1-57.4
							c-40.7,0-62.2,20.7-78,42.8l-60.9-54c29-42.8,70.5-69.2,146.6-69.2c102.2,0,154.8,47.1,154.8,132.7v141.8h33.8v85.5h-56.7
							V15037z M17601.7,14927.2v-42.8h-49.8c-39.4,0-60.1,14.6-60.1,40.7v10.4c0,26.3,17.3,38.6,47.6,38.6
							C17573.3,14974,17601.7,14960.2,17601.7,14927.2z"/>
					</g>
				</g>
				<g>
					<path class="st18" d="M16551.8,14475.5l-246.1,69l-246.3-69l-98.4,27.7v635.1l98.5,27.7l246.3-69l246.3,69l98.5-27.7v-635.1
						L16551.8,14475.5z M16453.5,14949.4l-147.7-41.3l-147.7,41.3V14692l147.7,41.3l147.7-41.3V14949.4z"/>
					<g>
						<polygon class="st19" points="16305.8,14599.6 16305.8,14733.3 16059.5,14664.4 16059.5,15165.7 15961.1,15138.3 
							15961.1,14503.2 						"/>
						<polygon class="st19" points="16453.5,15004.6 16305.8,14963.1 16305.8,15096.8 16551.8,15165.7 16551.8,14664.4 
							16453.5,14692 						"/>
					</g>
					<g>
						<polygon class="st20" points="16551.8,14475.5 16650.4,14503.2 16305.8,14599.6 15961.1,14503.2 16059.5,14475.5 
							16305.8,14544.5 						"/>
						<polygon class="st20" points="16305.8,14907.9 16453.5,14949.4 16453.5,15004.6 16305.8,14963.1 16158,15004.6 16158,14949.4 
													"/>
					</g>
				</g>
			</g>
		</g>
		<g transform="matrix(1,0,0,1,608.875,636.2128)">
			<text transform="matrix(1 0 0 1 705.6178 1271.8389)" class="st11 st21">GROSS INTERNAL AREA</text>
			<text transform="matrix(1 0 0 1 606.5582 1301.8604)" class="st11 st21">FLOOR 1: 1845 sq ft, FLOOR 2: 1288 sq ft</text>
			<text transform="matrix(1 0 0 1 736.4303 1331.8818)" class="st11 st21">TOTAL: 3133 sq ft</text>
		</g>
		<g transform="matrix(1,0,0,1,231.0944,645.8128)">
			<text transform="matrix(1 0 0 1 -184.2657 1351.9773)" class="st15 st11 st22">FLOOR 1</text>
		</g>
	</g>
</g>
</svg>
